<svg width="338" height="93" viewBox="0 0 338 93" fill="none" xmlns="http://www.w3.org/2000/svg">
<path d="M32.167 86.5L30.991 83.882H25.531L24.355 86.5H23.277L27.757 76.7H28.779L33.259 86.5H32.167ZM25.909 83.042H30.613L28.261 77.778L25.909 83.042ZM39.509 79.136H40.489L37.213 86.5H36.191L32.929 79.136H33.965L36.723 85.408L39.509 79.136ZM48.1099 82.818C48.1099 82.902 48.0959 83.014 48.0959 83.126H41.9359C42.0479 84.666 43.2239 85.688 44.8339 85.688C45.7299 85.688 46.5279 85.366 47.0879 84.722L47.6479 85.366C46.9899 86.15 45.9679 86.57 44.8059 86.57C42.5099 86.57 40.9419 85.002 40.9419 82.818C40.9419 80.634 42.4679 79.08 44.5399 79.08C46.6119 79.08 48.1099 80.606 48.1099 82.818ZM44.5399 79.934C43.1119 79.934 42.0619 80.942 41.9359 82.384H47.1579C47.0319 80.942 45.9819 79.934 44.5399 79.934ZM51.0851 80.578C51.5471 79.598 52.4851 79.08 53.8431 79.08V80.046C53.7591 80.046 53.6751 80.032 53.6051 80.032C52.0651 80.032 51.1271 81.012 51.1271 82.748V86.5H50.1331V79.136H51.0851V80.578ZM58.2052 79.08C60.1092 79.08 61.1872 80.032 61.1872 81.936V86.5H60.2352V85.352C59.7872 86.108 58.9192 86.57 57.7012 86.57C56.0352 86.57 55.0132 85.702 55.0132 84.428C55.0132 83.294 55.7412 82.342 57.8552 82.342H60.1932V81.894C60.1932 80.634 59.4792 79.948 58.1072 79.948C57.1552 79.948 56.2592 80.284 55.6572 80.816L55.2092 80.074C55.9512 79.444 57.0432 79.08 58.2052 79.08ZM57.8552 85.786C58.9752 85.786 59.8012 85.254 60.1932 84.288V83.084H57.8832C56.4552 83.084 55.9932 83.644 55.9932 84.4C55.9932 85.254 56.6792 85.786 57.8552 85.786ZM69.7803 79.136H70.7323V85.604C70.7323 88.138 69.4863 89.286 67.0503 89.286C65.7063 89.286 64.3903 88.88 63.6203 88.152L64.1243 87.396C64.8243 88.026 65.8883 88.404 67.0223 88.404C68.8843 88.404 69.7383 87.55 69.7383 85.73V84.792C69.1223 85.73 68.0723 86.22 66.8683 86.22C64.7683 86.22 63.1723 84.75 63.1723 82.636C63.1723 80.522 64.7683 79.08 66.8683 79.08C68.1003 79.08 69.1643 79.584 69.7803 80.55V79.136ZM66.9663 85.338C68.5903 85.338 69.7663 84.232 69.7663 82.636C69.7663 81.04 68.5903 79.948 66.9663 79.948C65.3423 79.948 64.1803 81.04 64.1803 82.636C64.1803 84.232 65.3423 85.338 66.9663 85.338ZM79.938 82.818C79.938 82.902 79.924 83.014 79.924 83.126H73.764C73.876 84.666 75.052 85.688 76.662 85.688C77.558 85.688 78.356 85.366 78.916 84.722L79.476 85.366C78.818 86.15 77.796 86.57 76.634 86.57C74.338 86.57 72.77 85.002 72.77 82.818C72.77 80.634 74.296 79.08 76.368 79.08C78.44 79.08 79.938 80.606 79.938 82.818ZM76.368 79.934C74.94 79.934 73.89 80.942 73.764 82.384H78.986C78.86 80.942 77.81 79.934 76.368 79.934ZM89.5033 76.7C91.9953 76.7 93.5073 77.96 93.5073 80.06C93.5073 82.146 91.9953 83.406 89.5033 83.406H86.8713V86.5H85.8353V76.7H89.5033ZM89.4753 82.496C91.4353 82.496 92.4713 81.6 92.4713 80.06C92.4713 78.492 91.4353 77.596 89.4753 77.596H86.8713V82.496H89.4753ZM98.045 79.08C99.949 79.08 101.027 80.032 101.027 81.936V86.5H100.075V85.352C99.627 86.108 98.759 86.57 97.541 86.57C95.875 86.57 94.853 85.702 94.853 84.428C94.853 83.294 95.581 82.342 97.695 82.342H100.033V81.894C100.033 80.634 99.319 79.948 97.947 79.948C96.995 79.948 96.099 80.284 95.497 80.816L95.049 80.074C95.791 79.444 96.883 79.08 98.045 79.08ZM97.695 85.786C98.815 85.786 99.641 85.254 100.033 84.288V83.084H97.723C96.295 83.084 95.833 83.644 95.833 84.4C95.833 85.254 96.519 85.786 97.695 85.786ZM106.806 86.57C104.608 86.57 103.012 85.016 103.012 82.818C103.012 80.62 104.608 79.08 106.806 79.08C108.052 79.08 109.102 79.57 109.69 80.536L108.948 81.04C108.444 80.298 107.66 79.948 106.806 79.948C105.196 79.948 104.02 81.096 104.02 82.818C104.02 84.554 105.196 85.688 106.806 85.688C107.66 85.688 108.444 85.352 108.948 84.61L109.69 85.114C109.102 86.066 108.052 86.57 106.806 86.57ZM117.231 86.5L114.263 82.804L112.527 84.4V86.5H111.533V76.112H112.527V83.154L116.923 79.136H118.155L115.005 82.146L118.449 86.5H117.231ZM122.381 79.08C124.285 79.08 125.363 80.032 125.363 81.936V86.5H124.411V85.352C123.963 86.108 123.095 86.57 121.877 86.57C120.211 86.57 119.189 85.702 119.189 84.428C119.189 83.294 119.917 82.342 122.031 82.342H124.369V81.894C124.369 80.634 123.655 79.948 122.283 79.948C121.331 79.948 120.435 80.284 119.833 80.816L119.385 80.074C120.127 79.444 121.219 79.08 122.381 79.08ZM122.031 85.786C123.151 85.786 123.977 85.254 124.369 84.288V83.084H122.059C120.631 83.084 120.169 83.644 120.169 84.4C120.169 85.254 120.855 85.786 122.031 85.786ZM133.956 79.136H134.908V85.604C134.908 88.138 133.662 89.286 131.226 89.286C129.882 89.286 128.566 88.88 127.796 88.152L128.3 87.396C129 88.026 130.064 88.404 131.198 88.404C133.06 88.404 133.914 87.55 133.914 85.73V84.792C133.298 85.73 132.248 86.22 131.044 86.22C128.944 86.22 127.348 84.75 127.348 82.636C127.348 80.522 128.944 79.08 131.044 79.08C132.276 79.08 133.34 79.584 133.956 80.55V79.136ZM131.142 85.338C132.766 85.338 133.942 84.232 133.942 82.636C133.942 81.04 132.766 79.948 131.142 79.948C129.518 79.948 128.356 81.04 128.356 82.636C128.356 84.232 129.518 85.338 131.142 85.338ZM144.114 82.818C144.114 82.902 144.1 83.014 144.1 83.126H137.94C138.052 84.666 139.228 85.688 140.838 85.688C141.734 85.688 142.532 85.366 143.092 84.722L143.652 85.366C142.994 86.15 141.972 86.57 140.81 86.57C138.514 86.57 136.946 85.002 136.946 82.818C136.946 80.634 138.472 79.08 140.544 79.08C142.616 79.08 144.114 80.606 144.114 82.818ZM140.544 79.934C139.116 79.934 138.066 80.942 137.94 82.384H143.162C143.036 80.942 141.986 79.934 140.544 79.934Z" fill="black"/>
<path d="M154.371 87.5H160.874C165.085 87.5 168.5 83.6307 168.5 78.8591V9.14085C168.5 4.36933 165.085 0.5 160.874 0.5H8.12631C3.91503 0.5 0.5 4.36933 0.5 9.14085V78.8591C0.5 83.6307 3.91503 87.5 8.12631 87.5H15.1333" stroke="black" stroke-miterlimit="10"/>
<path d="M57.156 30.352H50.908C51.612 31.056 52.14 31.892 52.536 32.772H57.156V36.424H53.416V36.996C53.416 41.528 50.952 44.784 46.728 46.368L54.032 57.5H46.376L39.82 47.424H31.152V41.704H39.336C44.22 41.704 46.2 39.372 46.244 36.424H29.348V32.772H45.232C44.132 31.232 42.108 30.308 39.072 30.352H29.348V26.7H57.156V30.352ZM81.96 41.308C84.952 42.804 86.668 45.268 86.668 48.568C86.668 54.376 81.476 58.028 73.644 58.028C65.856 58.028 60.708 54.376 60.708 48.568C60.708 45.268 62.424 42.804 65.372 41.308C63.084 39.9 61.808 37.744 61.808 34.972C61.808 29.56 66.648 26.172 73.644 26.172C80.728 26.172 85.568 29.56 85.568 34.972C85.568 37.744 84.248 39.9 81.96 41.308ZM73.644 31.408C70.784 31.408 68.892 32.86 68.892 35.28C68.892 37.612 70.74 39.064 73.644 39.064C76.592 39.064 78.484 37.612 78.484 35.28C78.484 32.86 76.548 31.408 73.644 31.408ZM73.644 52.792C77.208 52.792 79.452 51.076 79.452 48.348C79.452 45.62 77.208 43.948 73.644 43.948C70.124 43.948 67.924 45.62 67.924 48.348C67.924 51.076 70.124 52.792 73.644 52.792Z" fill="#A22877"/>
<path d="M93.6 55.5V41.5H95.6V53.76H103.18V55.5H93.6ZM110.935 41.5C114.575 41.5 116.775 43.34 116.775 46.38C116.775 49.42 114.575 51.26 110.935 51.26H107.475V55.5H105.475V41.5H110.935ZM110.875 49.52C113.435 49.52 114.775 48.38 114.775 46.38C114.775 44.38 113.435 43.24 110.875 43.24H107.475V49.52H110.875ZM129.47 55.5L127.93 52H120.49L118.95 55.5H116.89L123.23 41.5H125.21L131.57 55.5H129.47ZM121.19 50.4H127.23L124.21 43.54L121.19 50.4Z" fill="#A22877"/>
<path d="M209.059 76.7H210.081V86.5H209.059V81.978H202.927V86.5H201.891V76.7H202.927V81.068H209.059V76.7ZM213.574 77.526C213.168 77.526 212.846 77.204 212.846 76.812C212.846 76.434 213.168 76.112 213.574 76.112C213.98 76.112 214.302 76.42 214.302 76.798C214.302 77.204 213.994 77.526 213.574 77.526ZM213.07 86.5V79.136H214.064V86.5H213.07ZM222.695 79.136H223.647V85.604C223.647 88.138 222.401 89.286 219.965 89.286C218.621 89.286 217.305 88.88 216.535 88.152L217.039 87.396C217.739 88.026 218.803 88.404 219.937 88.404C221.799 88.404 222.653 87.55 222.653 85.73V84.792C222.037 85.73 220.987 86.22 219.783 86.22C217.683 86.22 216.087 84.75 216.087 82.636C216.087 80.522 217.683 79.08 219.783 79.08C221.015 79.08 222.079 79.584 222.695 80.55V79.136ZM219.881 85.338C221.505 85.338 222.681 84.232 222.681 82.636C222.681 81.04 221.505 79.948 219.881 79.948C218.257 79.948 217.095 81.04 217.095 82.636C217.095 84.232 218.257 85.338 219.881 85.338ZM230.179 79.08C231.971 79.08 233.203 80.116 233.203 82.23V86.5H232.209V82.328C232.209 80.774 231.397 79.976 229.997 79.976C228.415 79.976 227.421 80.956 227.421 82.636V86.5H226.427V76.112H227.421V80.424C227.967 79.57 228.933 79.08 230.179 79.08ZM242.355 82.818C242.355 82.902 242.341 83.014 242.341 83.126H236.181C236.293 84.666 237.469 85.688 239.079 85.688C239.975 85.688 240.773 85.366 241.333 84.722L241.893 85.366C241.235 86.15 240.213 86.57 239.051 86.57C236.755 86.57 235.187 85.002 235.187 82.818C235.187 80.634 236.713 79.08 238.785 79.08C240.857 79.08 242.355 80.606 242.355 82.818ZM238.785 79.934C237.357 79.934 236.307 80.942 236.181 82.384H241.403C241.277 80.942 240.227 79.934 238.785 79.934ZM246.352 86.57C245.134 86.57 243.958 86.178 243.356 85.66L243.804 84.876C244.392 85.338 245.386 85.702 246.422 85.702C247.822 85.702 248.396 85.226 248.396 84.498C248.396 82.58 243.622 84.092 243.622 81.18C243.622 79.976 244.658 79.08 246.534 79.08C247.486 79.08 248.522 79.346 249.138 79.766L248.704 80.564C248.06 80.116 247.29 79.934 246.534 79.934C245.204 79.934 244.616 80.452 244.616 81.152C244.616 83.14 249.39 81.642 249.39 84.47C249.39 85.744 248.27 86.57 246.352 86.57ZM254.756 85.338L255.106 86.052C254.714 86.402 254.126 86.57 253.552 86.57C252.166 86.57 251.396 85.786 251.396 84.428V79.976H250.08V79.136H251.396V77.526H252.39V79.136H254.63V79.976H252.39V84.372C252.39 85.24 252.838 85.716 253.664 85.716C254.07 85.716 254.476 85.59 254.756 85.338ZM264.457 76.7C266.949 76.7 268.461 77.96 268.461 80.06C268.461 82.146 266.949 83.406 264.457 83.406H261.825V86.5H260.789V76.7H264.457ZM264.429 82.496C266.389 82.496 267.425 81.6 267.425 80.06C267.425 78.492 266.389 77.596 264.429 77.596H261.825V82.496H264.429ZM272.999 79.08C274.903 79.08 275.981 80.032 275.981 81.936V86.5H275.029V85.352C274.581 86.108 273.713 86.57 272.495 86.57C270.829 86.57 269.807 85.702 269.807 84.428C269.807 83.294 270.535 82.342 272.649 82.342H274.987V81.894C274.987 80.634 274.273 79.948 272.901 79.948C271.949 79.948 271.053 80.284 270.451 80.816L270.003 80.074C270.745 79.444 271.837 79.08 272.999 79.08ZM272.649 85.786C273.769 85.786 274.595 85.254 274.987 84.288V83.084H272.677C271.249 83.084 270.787 83.644 270.787 84.4C270.787 85.254 271.473 85.786 272.649 85.786ZM281.76 86.57C279.562 86.57 277.966 85.016 277.966 82.818C277.966 80.62 279.562 79.08 281.76 79.08C283.006 79.08 284.056 79.57 284.644 80.536L283.902 81.04C283.398 80.298 282.614 79.948 281.76 79.948C280.15 79.948 278.974 81.096 278.974 82.818C278.974 84.554 280.15 85.688 281.76 85.688C282.614 85.688 283.398 85.352 283.902 84.61L284.644 85.114C284.056 86.066 283.006 86.57 281.76 86.57ZM292.186 86.5L289.218 82.804L287.482 84.4V86.5H286.488V76.112H287.482V83.154L291.878 79.136H293.11L289.96 82.146L293.404 86.5H292.186ZM297.335 79.08C299.239 79.08 300.317 80.032 300.317 81.936V86.5H299.365V85.352C298.917 86.108 298.049 86.57 296.831 86.57C295.165 86.57 294.143 85.702 294.143 84.428C294.143 83.294 294.871 82.342 296.985 82.342H299.323V81.894C299.323 80.634 298.609 79.948 297.237 79.948C296.285 79.948 295.389 80.284 294.787 80.816L294.339 80.074C295.081 79.444 296.173 79.08 297.335 79.08ZM296.985 85.786C298.105 85.786 298.931 85.254 299.323 84.288V83.084H297.013C295.585 83.084 295.123 83.644 295.123 84.4C295.123 85.254 295.809 85.786 296.985 85.786ZM308.91 79.136H309.862V85.604C309.862 88.138 308.616 89.286 306.18 89.286C304.836 89.286 303.52 88.88 302.75 88.152L303.254 87.396C303.954 88.026 305.018 88.404 306.152 88.404C308.014 88.404 308.868 87.55 308.868 85.73V84.792C308.252 85.73 307.202 86.22 305.998 86.22C303.898 86.22 302.302 84.75 302.302 82.636C302.302 80.522 303.898 79.08 305.998 79.08C307.23 79.08 308.294 79.584 308.91 80.55V79.136ZM306.096 85.338C307.72 85.338 308.896 84.232 308.896 82.636C308.896 81.04 307.72 79.948 306.096 79.948C304.472 79.948 303.31 81.04 303.31 82.636C303.31 84.232 304.472 85.338 306.096 85.338ZM319.068 82.818C319.068 82.902 319.054 83.014 319.054 83.126H312.894C313.006 84.666 314.182 85.688 315.792 85.688C316.688 85.688 317.486 85.366 318.046 84.722L318.606 85.366C317.948 86.15 316.926 86.57 315.764 86.57C313.468 86.57 311.9 85.002 311.9 82.818C311.9 80.634 313.426 79.08 315.498 79.08C317.57 79.08 319.068 80.606 319.068 82.818ZM315.498 79.934C314.07 79.934 313.02 80.942 312.894 82.384H318.116C317.99 80.942 316.94 79.934 315.498 79.934Z" fill="black"/>
<path d="M324.548 87.5H330.509C334.37 87.5 337.5 83.6307 337.5 78.8591V9.14085C337.5 4.36933 334.37 0.5 330.509 0.5H190.491C186.63 0.5 183.5 4.36933 183.5 9.14085V78.8591C183.5 83.6307 186.63 87.5 190.491 87.5H196.914" stroke="black" stroke-miterlimit="10"/>
<path d="M223.156 30.352H216.908C217.612 31.056 218.14 31.892 218.536 32.772H223.156V36.424H219.416V36.996C219.416 41.528 216.952 44.784 212.728 46.368L220.032 57.5H212.376L205.82 47.424H197.152V41.704H205.336C210.22 41.704 212.2 39.372 212.244 36.424H195.348V32.772H211.232C210.132 31.232 208.108 30.308 205.072 30.352H195.348V26.7H223.156V30.352ZM236.824 51.692H250.068V57.5H226.792V52.88L238.672 41.66C241.4 39.064 241.884 37.48 241.884 35.984C241.884 33.564 240.212 32.156 236.956 32.156C234.316 32.156 232.072 33.168 230.576 35.236L225.384 31.892C227.76 28.416 232.072 26.172 237.616 26.172C244.48 26.172 249.056 29.692 249.056 35.28C249.056 38.272 248.22 41 243.908 45.004L236.824 51.692ZM267.397 39.24C272.941 40.12 275.757 43.552 275.757 48.084C275.757 53.276 271.753 58.028 262.997 58.028C258.685 58.028 254.241 56.84 251.249 54.728L254.021 49.272C256.353 51.032 259.609 52.044 262.821 52.044C266.385 52.044 268.585 50.592 268.585 48.084C268.585 45.752 266.869 44.3 262.821 44.3H259.565V39.592L265.901 32.42H252.789V26.7H274.349V31.32L267.397 39.24Z" fill="#A22877"/>
<path d="M280.6 55.5V41.5H282.6V53.76H290.18V55.5H280.6ZM297.935 41.5C301.575 41.5 303.775 43.34 303.775 46.38C303.775 49.42 301.575 51.26 297.935 51.26H294.475V55.5H292.475V41.5H297.935ZM297.875 49.52C300.435 49.52 301.775 48.38 301.775 46.38C301.775 44.38 300.435 43.24 297.875 43.24H294.475V49.52H297.875ZM316.47 55.5L314.93 52H307.49L305.95 55.5H303.89L310.23 41.5H312.21L318.57 55.5H316.47ZM308.19 50.4H314.23L311.21 43.54L308.19 50.4Z" fill="#A22877"/>
</svg>
