<svg width="417" height="93" viewBox="0 0 417 93" fill="none" xmlns="http://www.w3.org/2000/svg">
<path d="M36.7623 88.3896L35.4183 85.3976H29.1783L27.8343 88.3896H26.6023L31.7223 77.1896H32.8903L38.0103 88.3896H36.7623ZM29.6103 84.4376H34.9863L32.2983 78.4216L29.6103 84.4376ZM45.1532 79.9736H46.2732L42.5292 88.3896H41.3612L37.6332 79.9736H38.8172L41.9692 87.1416L45.1532 79.9736ZM54.9827 84.1816C54.9827 84.2776 54.9667 84.4056 54.9667 84.5336H47.9267C48.0547 86.2936 49.3987 87.4616 51.2387 87.4616C52.2627 87.4616 53.1747 87.0936 53.8147 86.3576L54.4547 87.0936C53.7027 87.9896 52.5347 88.4696 51.2067 88.4696C48.5827 88.4696 46.7907 86.6776 46.7907 84.1816C46.7907 81.6856 48.5347 79.9096 50.9027 79.9096C53.2707 79.9096 54.9827 81.6536 54.9827 84.1816ZM50.9027 80.8856C49.2707 80.8856 48.0707 82.0376 47.9267 83.6856H53.8947C53.7507 82.0376 52.5507 80.8856 50.9027 80.8856ZM58.3829 81.6216C58.9109 80.5016 59.9829 79.9096 61.5349 79.9096V81.0136C61.4389 81.0136 61.3429 80.9976 61.2629 80.9976C59.5029 80.9976 58.4309 82.1176 58.4309 84.1016V88.3896H57.2949V79.9736H58.3829V81.6216ZM66.5202 79.9096C68.6962 79.9096 69.9282 80.9976 69.9282 83.1736V88.3896H68.8402V87.0776C68.3282 87.9416 67.3362 88.4696 65.9442 88.4696C64.0402 88.4696 62.8722 87.4776 62.8722 86.0216C62.8722 84.7256 63.7042 83.6376 66.1202 83.6376H68.7922V83.1256C68.7922 81.6856 67.9762 80.9016 66.4082 80.9016C65.3202 80.9016 64.2962 81.2856 63.6082 81.8936L63.0962 81.0456C63.9442 80.3256 65.1922 79.9096 66.5202 79.9096ZM66.1202 87.5736C67.4002 87.5736 68.3442 86.9656 68.7922 85.8616V84.4856H66.1522C64.5202 84.4856 63.9922 85.1256 63.9922 85.9896C63.9922 86.9656 64.7762 87.5736 66.1202 87.5736ZM79.7489 79.9736H80.8369V87.3656C80.8369 90.2616 79.4129 91.5736 76.6289 91.5736C75.0929 91.5736 73.5889 91.1096 72.7089 90.2776L73.2849 89.4136C74.0849 90.1336 75.3009 90.5656 76.5969 90.5656C78.7249 90.5656 79.7009 89.5896 79.7009 87.5096V86.4376C78.9969 87.5096 77.7969 88.0696 76.4209 88.0696C74.0209 88.0696 72.1969 86.3896 72.1969 83.9736C72.1969 81.5576 74.0209 79.9096 76.4209 79.9096C77.8289 79.9096 79.0449 80.4856 79.7489 81.5896V79.9736ZM76.5329 87.0616C78.3889 87.0616 79.7329 85.7976 79.7329 83.9736C79.7329 82.1496 78.3889 80.9016 76.5329 80.9016C74.6769 80.9016 73.3489 82.1496 73.3489 83.9736C73.3489 85.7976 74.6769 87.0616 76.5329 87.0616ZM91.3577 84.1816C91.3577 84.2776 91.3417 84.4056 91.3417 84.5336H84.3017C84.4297 86.2936 85.7737 87.4616 87.6137 87.4616C88.6377 87.4616 89.5497 87.0936 90.1897 86.3576L90.8297 87.0936C90.0777 87.9896 88.9097 88.4696 87.5817 88.4696C84.9577 88.4696 83.1657 86.6776 83.1657 84.1816C83.1657 81.6856 84.9097 79.9096 87.2777 79.9096C89.6457 79.9096 91.3577 81.6536 91.3577 84.1816ZM87.2777 80.8856C85.6457 80.8856 84.4457 82.0376 84.3017 83.6856H90.2697C90.1257 82.0376 88.9257 80.8856 87.2777 80.8856ZM102.289 77.1896C105.137 77.1896 106.865 78.6296 106.865 81.0296C106.865 83.4136 105.137 84.8536 102.289 84.8536H99.2814V88.3896H98.0974V77.1896H102.289ZM102.257 83.8136C104.497 83.8136 105.681 82.7896 105.681 81.0296C105.681 79.2376 104.497 78.2136 102.257 78.2136H99.2814V83.8136H102.257ZM112.051 79.9096C114.227 79.9096 115.459 80.9976 115.459 83.1736V88.3896H114.371V87.0776C113.859 87.9416 112.867 88.4696 111.475 88.4696C109.571 88.4696 108.403 87.4776 108.403 86.0216C108.403 84.7256 109.235 83.6376 111.651 83.6376H114.323V83.1256C114.323 81.6856 113.507 80.9016 111.939 80.9016C110.851 80.9016 109.827 81.2856 109.139 81.8936L108.627 81.0456C109.475 80.3256 110.723 79.9096 112.051 79.9096ZM111.651 87.5736C112.931 87.5736 113.875 86.9656 114.323 85.8616V84.4856H111.683C110.051 84.4856 109.523 85.1256 109.523 85.9896C109.523 86.9656 110.307 87.5736 111.651 87.5736ZM122.064 88.4696C119.552 88.4696 117.728 86.6936 117.728 84.1816C117.728 81.6696 119.552 79.9096 122.064 79.9096C123.488 79.9096 124.688 80.4696 125.36 81.5736L124.512 82.1496C123.936 81.3016 123.04 80.9016 122.064 80.9016C120.224 80.9016 118.88 82.2136 118.88 84.1816C118.88 86.1656 120.224 87.4616 122.064 87.4616C123.04 87.4616 123.936 87.0776 124.512 86.2296L125.36 86.8056C124.688 87.8936 123.488 88.4696 122.064 88.4696ZM133.979 88.3896L130.587 84.1656L128.603 85.9896V88.3896H127.467V76.5176H128.603V84.5656L133.627 79.9736H135.035L131.435 83.4136L135.371 88.3896H133.979ZM139.864 79.9096C142.04 79.9096 143.272 80.9976 143.272 83.1736V88.3896H142.184V87.0776C141.672 87.9416 140.68 88.4696 139.288 88.4696C137.384 88.4696 136.216 87.4776 136.216 86.0216C136.216 84.7256 137.048 83.6376 139.464 83.6376H142.136V83.1256C142.136 81.6856 141.32 80.9016 139.752 80.9016C138.664 80.9016 137.64 81.2856 136.952 81.8936L136.44 81.0456C137.288 80.3256 138.536 79.9096 139.864 79.9096ZM139.464 87.5736C140.744 87.5736 141.688 86.9656 142.136 85.8616V84.4856H139.496C137.864 84.4856 137.336 85.1256 137.336 85.9896C137.336 86.9656 138.12 87.5736 139.464 87.5736ZM153.093 79.9736H154.181V87.3656C154.181 90.2616 152.757 91.5736 149.973 91.5736C148.437 91.5736 146.933 91.1096 146.053 90.2776L146.629 89.4136C147.429 90.1336 148.645 90.5656 149.941 90.5656C152.069 90.5656 153.045 89.5896 153.045 87.5096V86.4376C152.341 87.5096 151.141 88.0696 149.765 88.0696C147.365 88.0696 145.541 86.3896 145.541 83.9736C145.541 81.5576 147.365 79.9096 149.765 79.9096C151.173 79.9096 152.389 80.4856 153.093 81.5896V79.9736ZM149.877 87.0616C151.733 87.0616 153.077 85.7976 153.077 83.9736C153.077 82.1496 151.733 80.9016 149.877 80.9016C148.021 80.9016 146.693 82.1496 146.693 83.9736C146.693 85.7976 148.021 87.0616 149.877 87.0616ZM164.701 84.1816C164.701 84.2776 164.685 84.4056 164.685 84.5336H157.645C157.773 86.2936 159.117 87.4616 160.957 87.4616C161.981 87.4616 162.893 87.0936 163.533 86.3576L164.173 87.0936C163.421 87.9896 162.253 88.4696 160.925 88.4696C158.301 88.4696 156.509 86.6776 156.509 84.1816C156.509 81.6856 158.253 79.9096 160.621 79.9096C162.989 79.9096 164.701 81.6536 164.701 84.1816ZM160.621 80.8856C158.989 80.8856 157.789 82.0376 157.645 83.6856H163.613C163.469 82.0376 162.269 80.8856 160.621 80.8856Z" fill="black"/>
<path d="M174.42 87.29H181.77C186.53 87.29 190.39 83.43 190.39 78.67V9.12C190.39 4.35999 186.53 0.5 181.77 0.5H9.12C4.36 0.5 0.5 4.35999 0.5 9.12V78.67C0.5 83.43 4.36 87.29 9.12 87.29H17.04" stroke="black" stroke-miterlimit="10"/>
<path d="M69.636 22.8421H60.548C61.572 23.8661 62.34 25.0821 62.916 26.3621H69.636V31.6741H64.196V32.5061C64.196 39.0981 60.612 43.8341 54.468 46.1381L65.092 62.3301H53.956L44.42 47.6741H31.812V39.3541H43.716C50.82 39.3541 53.7 35.9621 53.764 31.6741H29.188V26.3621H52.292C50.692 24.1221 47.748 22.7781 43.332 22.8421H29.188V17.5301H69.636V22.8421ZM105.715 38.7781C110.067 40.9541 112.562 44.5381 112.562 49.3381C112.562 57.7861 105.011 63.0981 93.6185 63.0981C82.2905 63.0981 74.8025 57.7861 74.8025 49.3381C74.8025 44.5381 77.2985 40.9541 81.5865 38.7781C78.2585 36.7301 76.4025 33.5941 76.4025 29.5621C76.4025 21.6901 83.4425 16.7621 93.6185 16.7621C103.923 16.7621 110.963 21.6901 110.963 29.5621C110.963 33.5941 109.043 36.7301 105.715 38.7781ZM93.6185 24.3781C89.4585 24.3781 86.7065 26.4901 86.7065 30.0101C86.7065 33.4021 89.3945 35.5141 93.6185 35.5141C97.9065 35.5141 100.659 33.4021 100.659 30.0101C100.659 26.4901 97.8425 24.3781 93.6185 24.3781ZM93.6185 55.4821C98.8025 55.4821 102.067 52.9861 102.067 49.0181C102.067 45.0501 98.8025 42.6181 93.6185 42.6181C88.4985 42.6181 85.2985 45.0501 85.2985 49.0181C85.2985 52.9861 88.4985 55.4821 93.6185 55.4821Z" fill="#A22877"/>
<path d="M118.02 62.3301V45.5301H120.42V60.2421H129.516V62.3301H118.02ZM138.822 45.5301C143.19 45.5301 145.83 47.7381 145.83 51.3861C145.83 55.0341 143.19 57.2421 138.822 57.2421H134.67V62.3301H132.27V45.5301H138.822ZM138.75 55.1541C141.822 55.1541 143.43 53.7861 143.43 51.3861C143.43 48.9861 141.822 47.6181 138.75 47.6181H134.67V55.1541H138.75ZM161.064 62.3301L159.216 58.1301H150.288L148.44 62.3301H145.968L153.576 45.5301H155.952L163.584 62.3301H161.064ZM151.128 56.2101H158.376L154.752 47.9781L151.128 56.2101Z" fill="#A22877"/>
<path d="M263.782 77.1896H264.95V88.3896H263.782V83.2216H256.774V88.3896H255.59V77.1896H256.774V82.1816H263.782V77.1896ZM268.941 78.1336C268.477 78.1336 268.109 77.7656 268.109 77.3176C268.109 76.8856 268.477 76.5176 268.941 76.5176C269.405 76.5176 269.773 76.8696 269.773 77.3016C269.773 77.7656 269.421 78.1336 268.941 78.1336ZM268.365 88.3896V79.9736H269.501V88.3896H268.365ZM279.366 79.9736H280.454V87.3656C280.454 90.2616 279.03 91.5736 276.246 91.5736C274.71 91.5736 273.206 91.1096 272.326 90.2776L272.902 89.4136C273.702 90.1336 274.918 90.5656 276.214 90.5656C278.342 90.5656 279.318 89.5896 279.318 87.5096V86.4376C278.614 87.5096 277.414 88.0696 276.038 88.0696C273.638 88.0696 271.814 86.3896 271.814 83.9736C271.814 81.5576 273.638 79.9096 276.038 79.9096C277.446 79.9096 278.662 80.4856 279.366 81.5896V79.9736ZM276.15 87.0616C278.006 87.0616 279.35 85.7976 279.35 83.9736C279.35 82.1496 278.006 80.9016 276.15 80.9016C274.294 80.9016 272.966 82.1496 272.966 83.9736C272.966 85.7976 274.294 87.0616 276.15 87.0616ZM287.919 79.9096C289.967 79.9096 291.375 81.0936 291.375 83.5096V88.3896H290.239V83.6216C290.239 81.8456 289.311 80.9336 287.711 80.9336C285.903 80.9336 284.767 82.0536 284.767 83.9736V88.3896H283.631V76.5176H284.767V81.4456C285.391 80.4696 286.495 79.9096 287.919 79.9096ZM301.834 84.1816C301.834 84.2776 301.818 84.4056 301.818 84.5336H294.778C294.906 86.2936 296.25 87.4616 298.09 87.4616C299.114 87.4616 300.026 87.0936 300.666 86.3576L301.306 87.0936C300.554 87.9896 299.386 88.4696 298.058 88.4696C295.434 88.4696 293.642 86.6776 293.642 84.1816C293.642 81.6856 295.386 79.9096 297.754 79.9096C300.122 79.9096 301.834 81.6536 301.834 84.1816ZM297.754 80.8856C296.122 80.8856 294.922 82.0376 294.778 83.6856H300.746C300.602 82.0376 299.402 80.8856 297.754 80.8856ZM306.403 88.4696C305.011 88.4696 303.667 88.0216 302.979 87.4296L303.491 86.5336C304.163 87.0616 305.299 87.4776 306.483 87.4776C308.083 87.4776 308.739 86.9336 308.739 86.1016C308.739 83.9096 303.283 85.6376 303.283 82.3096C303.283 80.9336 304.467 79.9096 306.611 79.9096C307.699 79.9096 308.883 80.2136 309.587 80.6936L309.091 81.6056C308.355 81.0936 307.475 80.8856 306.611 80.8856C305.091 80.8856 304.419 81.4776 304.419 82.2776C304.419 84.5496 309.875 82.8376 309.875 86.0696C309.875 87.5256 308.595 88.4696 306.403 88.4696ZM316.007 87.0616L316.407 87.8776C315.959 88.2776 315.287 88.4696 314.631 88.4696C313.047 88.4696 312.167 87.5736 312.167 86.0216V80.9336H310.663V79.9736H312.167V78.1336H313.303V79.9736H315.863V80.9336H313.303V85.9576C313.303 86.9496 313.815 87.4936 314.759 87.4936C315.223 87.4936 315.687 87.3496 316.007 87.0616ZM327.094 77.1896C329.942 77.1896 331.67 78.6296 331.67 81.0296C331.67 83.4136 329.942 84.8536 327.094 84.8536H324.086V88.3896H322.902V77.1896H327.094ZM327.062 83.8136C329.302 83.8136 330.486 82.7896 330.486 81.0296C330.486 79.2376 329.302 78.2136 327.062 78.2136H324.086V83.8136H327.062ZM336.856 79.9096C339.032 79.9096 340.264 80.9976 340.264 83.1736V88.3896H339.176V87.0776C338.664 87.9416 337.672 88.4696 336.28 88.4696C334.376 88.4696 333.208 87.4776 333.208 86.0216C333.208 84.7256 334.04 83.6376 336.456 83.6376H339.128V83.1256C339.128 81.6856 338.312 80.9016 336.744 80.9016C335.656 80.9016 334.632 81.2856 333.944 81.8936L333.432 81.0456C334.28 80.3256 335.528 79.9096 336.856 79.9096ZM336.456 87.5736C337.736 87.5736 338.68 86.9656 339.128 85.8616V84.4856H336.488C334.856 84.4856 334.328 85.1256 334.328 85.9896C334.328 86.9656 335.112 87.5736 336.456 87.5736ZM346.869 88.4696C344.357 88.4696 342.533 86.6936 342.533 84.1816C342.533 81.6696 344.357 79.9096 346.869 79.9096C348.293 79.9096 349.493 80.4696 350.165 81.5736L349.317 82.1496C348.741 81.3016 347.845 80.9016 346.869 80.9016C345.029 80.9016 343.685 82.2136 343.685 84.1816C343.685 86.1656 345.029 87.4616 346.869 87.4616C347.845 87.4616 348.741 87.0776 349.317 86.2296L350.165 86.8056C349.493 87.8936 348.293 88.4696 346.869 88.4696ZM358.784 88.3896L355.391 84.1656L353.408 85.9896V88.3896H352.272V76.5176H353.408V84.5656L358.432 79.9736H359.84L356.24 83.4136L360.176 88.3896H358.784ZM364.669 79.9096C366.845 79.9096 368.077 80.9976 368.077 83.1736V88.3896H366.989V87.0776C366.477 87.9416 365.485 88.4696 364.093 88.4696C362.189 88.4696 361.021 87.4776 361.021 86.0216C361.021 84.7256 361.853 83.6376 364.269 83.6376H366.941V83.1256C366.941 81.6856 366.125 80.9016 364.557 80.9016C363.469 80.9016 362.445 81.2856 361.757 81.8936L361.245 81.0456C362.093 80.3256 363.341 79.9096 364.669 79.9096ZM364.269 87.5736C365.549 87.5736 366.493 86.9656 366.941 85.8616V84.4856H364.301C362.669 84.4856 362.141 85.1256 362.141 85.9896C362.141 86.9656 362.925 87.5736 364.269 87.5736ZM377.897 79.9736H378.985V87.3656C378.985 90.2616 377.561 91.5736 374.777 91.5736C373.241 91.5736 371.737 91.1096 370.857 90.2776L371.433 89.4136C372.233 90.1336 373.449 90.5656 374.745 90.5656C376.873 90.5656 377.849 89.5896 377.849 87.5096V86.4376C377.145 87.5096 375.945 88.0696 374.569 88.0696C372.169 88.0696 370.345 86.3896 370.345 83.9736C370.345 81.5576 372.169 79.9096 374.569 79.9096C375.977 79.9096 377.193 80.4856 377.897 81.5896V79.9736ZM374.681 87.0616C376.537 87.0616 377.881 85.7976 377.881 83.9736C377.881 82.1496 376.537 80.9016 374.681 80.9016C372.825 80.9016 371.497 82.1496 371.497 83.9736C371.497 85.7976 372.825 87.0616 374.681 87.0616ZM389.506 84.1816C389.506 84.2776 389.49 84.4056 389.49 84.5336H382.45C382.578 86.2936 383.922 87.4616 385.762 87.4616C386.786 87.4616 387.698 87.0936 388.338 86.3576L388.978 87.0936C388.226 87.9896 387.058 88.4696 385.73 88.4696C383.106 88.4696 381.314 86.6776 381.314 84.1816C381.314 81.6856 383.058 79.9096 385.426 79.9096C387.794 79.9096 389.506 81.6536 389.506 84.1816ZM385.426 80.8856C383.794 80.8856 382.594 82.0376 382.45 83.6856H388.418C388.274 82.0376 387.074 80.8856 385.426 80.8856Z" fill="black"/>
<path d="M400.42 87.29H407.77C412.53 87.29 416.39 83.43 416.39 78.67V9.12C416.39 4.35999 412.53 0.5 407.77 0.5H235.12C230.36 0.5 226.5 4.35999 226.5 9.12V78.67C226.5 83.43 230.36 87.29 235.12 87.29H243.04" stroke="black" stroke-miterlimit="10"/>
<path d="M280.636 22.8421H271.548C272.572 23.8661 273.34 25.0821 273.916 26.3621H280.636V31.6741H275.196V32.5061C275.196 39.0981 271.612 43.8341 265.468 46.1381L276.092 62.3301H264.956L255.42 47.6741H242.812V39.3541H254.716C261.82 39.3541 264.7 35.9621 264.764 31.6741H240.188V26.3621H263.292C261.692 24.1221 258.748 22.7781 254.332 22.8421H240.188V17.5301H280.636V22.8421ZM300.517 53.8821H319.781V62.3301H285.924V55.6101L303.205 39.2901C307.173 35.5141 307.877 33.2101 307.877 31.0341C307.877 27.5141 305.445 25.4661 300.708 25.4661C296.869 25.4661 293.605 26.9381 291.429 29.9461L283.877 25.0821C287.333 20.0261 293.605 16.7621 301.669 16.7621C311.653 16.7621 318.309 21.8821 318.309 30.0101C318.309 34.3621 317.093 38.3301 310.821 44.1541L300.517 53.8821ZM344.987 35.7701C353.051 37.0501 357.147 42.0421 357.147 48.6341C357.147 56.1861 351.323 63.0981 338.587 63.0981C332.315 63.0981 325.851 61.3701 321.498 58.2981L325.531 50.3621C328.923 52.9221 333.659 54.3941 338.331 54.3941C343.515 54.3941 346.715 52.2821 346.715 48.6341C346.715 45.2421 344.219 43.1301 338.331 43.1301H333.595V36.2821L342.811 25.8501H323.739V17.5301H355.099V24.2501L344.987 35.7701Z" fill="#A22877"/>
<path d="M359.02 62.3301V45.5301H361.42V60.2421H370.516V62.3301H359.02ZM379.822 45.5301C384.19 45.5301 386.83 47.7381 386.83 51.3861C386.83 55.0341 384.19 57.2421 379.822 57.2421H375.67V62.3301H373.27V45.5301H379.822ZM379.75 55.1541C382.822 55.1541 384.43 53.7861 384.43 51.3861C384.43 48.9861 382.822 47.6181 379.75 47.6181H375.67V55.1541H379.75ZM402.064 62.3301L400.216 58.1301H391.288L389.44 62.3301H386.968L394.576 45.5301H396.952L404.584 62.3301H402.064ZM392.128 56.2101H399.376L395.752 47.9781L392.128 56.2101Z" fill="#A22877"/>
</svg>
