<svg width="440" height="300" viewBox="0 0 440 300" fill="none" xmlns="http://www.w3.org/2000/svg">
<rect width="440" height="300" fill="#EDFFFB"/>
<path d="M49.6251 164.2H50.4791V174H49.4851V166.16L45.6351 172.754H45.1451L41.2951 166.202V174H40.3011V164.2H41.1551L45.4111 171.466L49.6251 164.2ZM59.8462 168.946C61.1062 169.226 61.8622 170.052 61.8622 171.382C61.8622 173.048 60.6302 174 58.1802 174H53.6722V164.2H57.9002C60.0842 164.2 61.3442 165.124 61.3442 166.72C61.3442 167.84 60.7422 168.582 59.8462 168.946ZM57.8302 165.054H54.7082V168.61H57.8302C59.3982 168.61 60.3082 168.008 60.3082 166.832C60.3082 165.656 59.3982 165.054 57.8302 165.054ZM58.1662 173.146C59.8882 173.146 60.8262 172.586 60.8262 171.298C60.8262 170.024 59.8882 169.464 58.1662 169.464H54.7082V173.146H58.1662ZM71.5489 174L70.3729 171.382H64.9129L63.7369 174H62.6589L67.1389 164.2H68.1609L72.6409 174H71.5489ZM65.2909 170.542H69.9949L67.6429 165.278L65.2909 170.542ZM80.2921 166.58C82.1961 166.58 83.2741 167.532 83.2741 169.436V174H82.3221V172.852C81.8741 173.608 81.0061 174.07 79.7881 174.07C78.1221 174.07 77.1001 173.202 77.1001 171.928C77.1001 170.794 77.8281 169.842 79.9421 169.842H82.2801V169.394C82.2801 168.134 81.5661 167.448 80.1941 167.448C79.2421 167.448 78.3461 167.784 77.7441 168.316L77.2961 167.574C78.0381 166.944 79.1301 166.58 80.2921 166.58ZM79.9421 173.286C81.0621 173.286 81.8881 172.754 82.2801 171.788V170.584H79.9701C78.5421 170.584 78.0801 171.144 78.0801 171.9C78.0801 172.754 78.7661 173.286 79.9421 173.286ZM91.7272 163.612H92.7212V174H91.7692V172.544C91.1672 173.538 90.1452 174.07 88.9272 174.07C86.8272 174.07 85.2592 172.544 85.2592 170.318C85.2592 168.092 86.8272 166.58 88.9272 166.58C90.1032 166.58 91.1112 167.084 91.7272 168.036V163.612ZM89.0112 173.188C90.5652 173.188 91.7412 172.04 91.7412 170.318C91.7412 168.596 90.5652 167.448 89.0112 167.448C87.4432 167.448 86.2672 168.596 86.2672 170.318C86.2672 172.04 87.4432 173.188 89.0112 173.188ZM104.674 166.58C106.466 166.58 107.642 167.616 107.642 169.73V174H106.648V169.828C106.648 168.274 105.864 167.476 104.534 167.476C103.022 167.476 102.07 168.456 102.07 170.136V174H101.076V169.828C101.076 168.274 100.292 167.476 98.9475 167.476C97.4495 167.476 96.4835 168.456 96.4835 170.136V174H95.4895V166.636H96.4415V167.98C96.9595 167.098 97.9115 166.58 99.1435 166.58C100.362 166.58 101.314 167.098 101.762 168.134C102.294 167.182 103.344 166.58 104.674 166.58ZM110.841 165.026C110.435 165.026 110.113 164.704 110.113 164.312C110.113 163.934 110.435 163.612 110.841 163.612C111.247 163.612 111.569 163.92 111.569 164.298C111.569 164.704 111.261 165.026 110.841 165.026ZM110.337 174V166.636H111.331V174H110.337ZM116.071 174.07C114.853 174.07 113.677 173.678 113.075 173.16L113.523 172.376C114.111 172.838 115.105 173.202 116.141 173.202C117.541 173.202 118.115 172.726 118.115 171.998C118.115 170.08 113.341 171.592 113.341 168.68C113.341 167.476 114.377 166.58 116.253 166.58C117.205 166.58 118.241 166.846 118.857 167.266L118.423 168.064C117.779 167.616 117.009 167.434 116.253 167.434C114.923 167.434 114.335 167.952 114.335 168.652C114.335 170.64 119.109 169.142 119.109 171.97C119.109 173.244 117.989 174.07 116.071 174.07ZM122.921 174.07C121.703 174.07 120.527 173.678 119.925 173.16L120.373 172.376C120.961 172.838 121.955 173.202 122.991 173.202C124.391 173.202 124.965 172.726 124.965 171.998C124.965 170.08 120.191 171.592 120.191 168.68C120.191 167.476 121.227 166.58 123.103 166.58C124.055 166.58 125.091 166.846 125.707 167.266L125.273 168.064C124.629 167.616 123.859 167.434 123.103 167.434C121.773 167.434 121.185 167.952 121.185 168.652C121.185 170.64 125.959 169.142 125.959 171.97C125.959 173.244 124.839 174.07 122.921 174.07ZM128.3 165.026C127.894 165.026 127.572 164.704 127.572 164.312C127.572 163.934 127.894 163.612 128.3 163.612C128.706 163.612 129.028 163.92 129.028 164.298C129.028 164.704 128.72 165.026 128.3 165.026ZM127.796 174V166.636H128.79V174H127.796ZM134.566 174.07C132.41 174.07 130.814 172.502 130.814 170.318C130.814 168.134 132.41 166.58 134.566 166.58C136.722 166.58 138.304 168.134 138.304 170.318C138.304 172.502 136.722 174.07 134.566 174.07ZM134.566 173.188C136.134 173.188 137.296 172.04 137.296 170.318C137.296 168.596 136.134 167.448 134.566 167.448C132.998 167.448 131.822 168.596 131.822 170.318C131.822 172.04 132.998 173.188 134.566 173.188ZM144.085 166.58C145.877 166.58 147.109 167.616 147.109 169.73V174H146.115V169.828C146.115 168.274 145.303 167.476 143.903 167.476C142.321 167.476 141.327 168.456 141.327 170.136V174H140.333V166.636H141.285V167.994C141.817 167.098 142.811 166.58 144.085 166.58ZM151.782 174.07C150.564 174.07 149.388 173.678 148.786 173.16L149.234 172.376C149.822 172.838 150.816 173.202 151.852 173.202C153.252 173.202 153.826 172.726 153.826 171.998C153.826 170.08 149.052 171.592 149.052 168.68C149.052 167.476 150.088 166.58 151.964 166.58C152.916 166.58 153.952 166.846 154.568 167.266L154.134 168.064C153.49 167.616 152.72 167.434 151.964 167.434C150.634 167.434 150.046 167.952 150.046 168.652C150.046 170.64 154.82 169.142 154.82 171.97C154.82 173.244 153.7 174.07 151.782 174.07ZM162.898 166.58C164.802 166.58 165.88 167.532 165.88 169.436V174H164.928V172.852C164.48 173.608 163.612 174.07 162.394 174.07C160.728 174.07 159.706 173.202 159.706 171.928C159.706 170.794 160.434 169.842 162.548 169.842H164.886V169.394C164.886 168.134 164.172 167.448 162.8 167.448C161.848 167.448 160.952 167.784 160.35 168.316L159.902 167.574C160.644 166.944 161.736 166.58 162.898 166.58ZM162.548 173.286C163.668 173.286 164.494 172.754 164.886 171.788V170.584H162.576C161.148 170.584 160.686 171.144 160.686 171.9C160.686 172.754 161.372 173.286 162.548 173.286ZM172.107 172.838L172.457 173.552C172.065 173.902 171.477 174.07 170.903 174.07C169.517 174.07 168.747 173.286 168.747 171.928V167.476H167.431V166.636H168.747V165.026H169.741V166.636H171.981V167.476H169.741V171.872C169.741 172.74 170.189 173.216 171.015 173.216C171.421 173.216 171.827 173.09 172.107 172.838ZM185.463 174L184.287 171.382H178.827L177.651 174H176.573L181.053 164.2H182.075L186.555 174H185.463ZM179.205 170.542H183.909L181.557 165.278L179.205 170.542ZM188.176 174V164.2H189.212V174H188.176ZM201.725 164.2H202.579V174H201.585V166.16L197.735 172.754H197.245L193.395 166.202V174H192.401V164.2H193.255L197.511 171.466L201.725 164.2ZM208.474 174.084C207.004 174.084 205.562 173.566 204.834 172.81L205.24 172.012C205.94 172.698 207.186 173.202 208.474 173.202C210.308 173.202 211.106 172.432 211.106 171.466C211.106 168.778 205.072 170.43 205.072 166.804C205.072 165.362 206.192 164.116 208.684 164.116C209.79 164.116 210.938 164.438 211.722 164.984L211.372 165.81C210.532 165.264 209.552 164.998 208.684 164.998C206.892 164.998 206.094 165.796 206.094 166.776C206.094 169.464 212.128 167.84 212.128 171.41C212.128 172.852 210.98 174.084 208.474 174.084ZM218.049 174V164.2H219.085V174H218.049ZM225.816 166.58C227.608 166.58 228.84 167.616 228.84 169.73V174H227.846V169.828C227.846 168.274 227.034 167.476 225.634 167.476C224.052 167.476 223.058 168.456 223.058 170.136V174H222.064V166.636H223.016V167.994C223.548 167.098 224.542 166.58 225.816 166.58ZM233.512 174.07C232.294 174.07 231.118 173.678 230.516 173.16L230.964 172.376C231.552 172.838 232.546 173.202 233.582 173.202C234.982 173.202 235.556 172.726 235.556 171.998C235.556 170.08 230.782 171.592 230.782 168.68C230.782 167.476 231.818 166.58 233.694 166.58C234.646 166.58 235.682 166.846 236.298 167.266L235.864 168.064C235.22 167.616 234.45 167.434 233.694 167.434C232.364 167.434 231.776 167.952 231.776 168.652C231.776 170.64 236.55 169.142 236.55 171.97C236.55 173.244 235.43 174.07 233.512 174.07ZM241.916 172.838L242.266 173.552C241.874 173.902 241.286 174.07 240.712 174.07C239.326 174.07 238.556 173.286 238.556 171.928V167.476H237.24V166.636H238.556V165.026H239.55V166.636H241.79V167.476H239.55V171.872C239.55 172.74 239.998 173.216 240.824 173.216C241.23 173.216 241.636 173.09 241.916 172.838ZM244.579 165.026C244.173 165.026 243.851 164.704 243.851 164.312C243.851 163.934 244.173 163.612 244.579 163.612C244.985 163.612 245.307 163.92 245.307 164.298C245.307 164.704 244.999 165.026 244.579 165.026ZM244.075 174V166.636H245.069V174H244.075ZM251.363 172.838L251.713 173.552C251.321 173.902 250.733 174.07 250.159 174.07C248.773 174.07 248.003 173.286 248.003 171.928V167.476H246.687V166.636H248.003V165.026H248.997V166.636H251.237V167.476H248.997V171.872C248.997 172.74 249.445 173.216 250.271 173.216C250.677 173.216 251.083 173.09 251.363 172.838ZM259.165 166.636H260.159V174H259.207V172.656C258.689 173.552 257.737 174.07 256.561 174.07C254.685 174.07 253.453 173.02 253.453 170.906V166.636H254.447V170.808C254.447 172.376 255.259 173.174 256.659 173.174C258.199 173.174 259.165 172.18 259.165 170.5V166.636ZM266.471 172.838L266.821 173.552C266.429 173.902 265.841 174.07 265.267 174.07C263.881 174.07 263.111 173.286 263.111 171.928V167.476H261.795V166.636H263.111V165.026H264.105V166.636H266.345V167.476H264.105V171.872C264.105 172.74 264.553 173.216 265.379 173.216C265.785 173.216 266.191 173.09 266.471 172.838ZM274.796 170.318C274.796 170.402 274.782 170.514 274.782 170.626H268.622C268.734 172.166 269.91 173.188 271.52 173.188C272.416 173.188 273.214 172.866 273.774 172.222L274.334 172.866C273.676 173.65 272.654 174.07 271.492 174.07C269.196 174.07 267.628 172.502 267.628 170.318C267.628 168.134 269.154 166.58 271.226 166.58C273.298 166.58 274.796 168.106 274.796 170.318ZM271.226 167.434C269.798 167.434 268.748 168.442 268.622 169.884H273.844C273.718 168.442 272.668 167.434 271.226 167.434ZM278.794 174.07C277.576 174.07 276.4 173.678 275.798 173.16L276.246 172.376C276.834 172.838 277.828 173.202 278.864 173.202C280.264 173.202 280.838 172.726 280.838 171.998C280.838 170.08 276.064 171.592 276.064 168.68C276.064 167.476 277.1 166.58 278.976 166.58C279.928 166.58 280.964 166.846 281.58 167.266L281.146 168.064C280.502 167.616 279.732 167.434 278.976 167.434C277.646 167.434 277.058 167.952 277.058 168.652C277.058 170.64 281.832 169.142 281.832 171.97C281.832 173.244 280.712 174.07 278.794 174.07ZM289.909 166.58C291.813 166.58 292.891 167.532 292.891 169.436V174H291.939V172.852C291.491 173.608 290.623 174.07 289.405 174.07C287.739 174.07 286.717 173.202 286.717 171.928C286.717 170.794 287.445 169.842 289.559 169.842H291.897V169.394C291.897 168.134 291.183 167.448 289.811 167.448C288.859 167.448 287.963 167.784 287.361 168.316L286.913 167.574C287.655 166.944 288.747 166.58 289.909 166.58ZM289.559 173.286C290.679 173.286 291.505 172.754 291.897 171.788V170.584H289.587C288.159 170.584 287.697 171.144 287.697 171.9C287.697 172.754 288.383 173.286 289.559 173.286ZM296.543 168.078C297.005 167.098 297.943 166.58 299.301 166.58V167.546C299.217 167.546 299.133 167.532 299.063 167.532C297.523 167.532 296.585 168.512 296.585 170.248V174H295.591V166.636H296.543V168.078ZM307.458 170.318C307.458 170.402 307.444 170.514 307.444 170.626H301.284C301.396 172.166 302.572 173.188 304.182 173.188C305.078 173.188 305.876 172.866 306.436 172.222L306.996 172.866C306.338 173.65 305.316 174.07 304.154 174.07C301.858 174.07 300.29 172.502 300.29 170.318C300.29 168.134 301.816 166.58 303.888 166.58C305.96 166.58 307.458 168.106 307.458 170.318ZM303.888 167.434C302.46 167.434 301.41 168.442 301.284 169.884H306.506C306.38 168.442 305.33 167.434 303.888 167.434ZM316.198 174.07C314 174.07 312.404 172.516 312.404 170.318C312.404 168.12 314 166.58 316.198 166.58C317.444 166.58 318.494 167.07 319.082 168.036L318.34 168.54C317.836 167.798 317.052 167.448 316.198 167.448C314.588 167.448 313.412 168.596 313.412 170.318C313.412 172.054 314.588 173.188 316.198 173.188C317.052 173.188 317.836 172.852 318.34 172.11L319.082 172.614C318.494 173.566 317.444 174.07 316.198 174.07ZM320.925 174V163.612H321.919V174H320.925ZM327.695 174.07C325.539 174.07 323.943 172.502 323.943 170.318C323.943 168.134 325.539 166.58 327.695 166.58C329.851 166.58 331.433 168.134 331.433 170.318C331.433 172.502 329.851 174.07 327.695 174.07ZM327.695 173.188C329.263 173.188 330.425 172.04 330.425 170.318C330.425 168.596 329.263 167.448 327.695 167.448C326.127 167.448 324.951 168.596 324.951 170.318C324.951 172.04 326.127 173.188 327.695 173.188ZM335.436 174.07C334.218 174.07 333.042 173.678 332.44 173.16L332.888 172.376C333.476 172.838 334.47 173.202 335.506 173.202C336.906 173.202 337.48 172.726 337.48 171.998C337.48 170.08 332.706 171.592 332.706 168.68C332.706 167.476 333.742 166.58 335.618 166.58C336.57 166.58 337.606 166.846 338.222 167.266L337.788 168.064C337.144 167.616 336.374 167.434 335.618 167.434C334.288 167.434 333.7 167.952 333.7 168.652C333.7 170.64 338.474 169.142 338.474 171.97C338.474 173.244 337.354 174.07 335.436 174.07ZM340.816 165.026C340.41 165.026 340.088 164.704 340.088 164.312C340.088 163.934 340.41 163.612 340.816 163.612C341.222 163.612 341.544 163.92 341.544 164.298C341.544 164.704 341.236 165.026 340.816 165.026ZM340.312 174V166.636H341.306V174H340.312ZM347.824 166.58C349.616 166.58 350.848 167.616 350.848 169.73V174H349.854V169.828C349.854 168.274 349.042 167.476 347.642 167.476C346.06 167.476 345.066 168.456 345.066 170.136V174H344.072V166.636H345.024V167.994C345.556 167.098 346.55 166.58 347.824 166.58ZM359.44 166.636H360.392V173.104C360.392 175.638 359.146 176.786 356.71 176.786C355.366 176.786 354.05 176.38 353.28 175.652L353.784 174.896C354.484 175.526 355.548 175.904 356.682 175.904C358.544 175.904 359.398 175.05 359.398 173.23V172.292C358.782 173.23 357.732 173.72 356.528 173.72C354.428 173.72 352.832 172.25 352.832 170.136C352.832 168.022 354.428 166.58 356.528 166.58C357.76 166.58 358.824 167.084 359.44 168.05V166.636ZM356.626 172.838C358.25 172.838 359.426 171.732 359.426 170.136C359.426 168.54 358.25 167.448 356.626 167.448C355.002 167.448 353.84 168.54 353.84 170.136C353.84 171.732 355.002 172.838 356.626 172.838ZM368.809 174.07C367.591 174.07 366.415 173.678 365.813 173.16L366.261 172.376C366.849 172.838 367.843 173.202 368.879 173.202C370.279 173.202 370.853 172.726 370.853 171.998C370.853 170.08 366.079 171.592 366.079 168.68C366.079 167.476 367.115 166.58 368.991 166.58C369.943 166.58 370.979 166.846 371.595 167.266L371.161 168.064C370.517 167.616 369.747 167.434 368.991 167.434C367.661 167.434 367.073 167.952 367.073 168.652C367.073 170.64 371.847 169.142 371.847 171.97C371.847 173.244 370.727 174.07 368.809 174.07ZM376.695 174.07C374.539 174.07 372.943 172.502 372.943 170.318C372.943 168.134 374.539 166.58 376.695 166.58C378.851 166.58 380.433 168.134 380.433 170.318C380.433 172.502 378.851 174.07 376.695 174.07ZM376.695 173.188C378.263 173.188 379.425 172.04 379.425 170.318C379.425 168.596 378.263 167.448 376.695 167.448C375.127 167.448 373.951 168.596 373.951 170.318C373.951 172.04 375.127 173.188 376.695 173.188ZM385.472 174.07C383.316 174.07 381.72 172.502 381.72 170.318C381.72 168.134 383.316 166.58 385.472 166.58C387.628 166.58 389.21 168.134 389.21 170.318C389.21 172.502 387.628 174.07 385.472 174.07ZM385.472 173.188C387.04 173.188 388.202 172.04 388.202 170.318C388.202 168.596 387.04 167.448 385.472 167.448C383.904 167.448 382.728 168.596 382.728 170.318C382.728 172.04 383.904 173.188 385.472 173.188ZM394.992 166.58C396.784 166.58 398.016 167.616 398.016 169.73V174H397.022V169.828C397.022 168.274 396.21 167.476 394.81 167.476C393.228 167.476 392.234 168.456 392.234 170.136V174H391.24V166.636H392.192V167.994C392.724 167.098 393.718 166.58 394.992 166.58ZM400.812 174.07C400.406 174.07 400.07 173.734 400.07 173.3C400.07 172.866 400.406 172.544 400.812 172.544C401.218 172.544 401.568 172.866 401.568 173.3C401.568 173.734 401.218 174.07 400.812 174.07ZM66.6194 194V184.2H67.6554V193.104H73.1434V194H66.6194ZM80.9702 190.318C80.9702 190.402 80.9562 190.514 80.9562 190.626H74.7962C74.9082 192.166 76.0842 193.188 77.6942 193.188C78.5902 193.188 79.3882 192.866 79.9482 192.222L80.5082 192.866C79.8502 193.65 78.8282 194.07 77.6662 194.07C75.3702 194.07 73.8022 192.502 73.8022 190.318C73.8022 188.134 75.3282 186.58 77.4002 186.58C79.4722 186.58 80.9702 188.106 80.9702 190.318ZM77.4002 187.434C75.9722 187.434 74.9222 188.442 74.7962 189.884H80.0182C79.8922 188.442 78.8422 187.434 77.4002 187.434ZM85.3643 186.58C87.2683 186.58 88.3463 187.532 88.3463 189.436V194H87.3943V192.852C86.9463 193.608 86.0783 194.07 84.8603 194.07C83.1943 194.07 82.1723 193.202 82.1723 191.928C82.1723 190.794 82.9003 189.842 85.0143 189.842H87.3523V189.394C87.3523 188.134 86.6383 187.448 85.2663 187.448C84.3143 187.448 83.4183 187.784 82.8163 188.316L82.3683 187.574C83.1103 186.944 84.2023 186.58 85.3643 186.58ZM85.0143 193.286C86.1343 193.286 86.9603 192.754 87.3523 191.788V190.584H85.0423C83.6143 190.584 83.1523 191.144 83.1523 191.9C83.1523 192.754 83.8383 193.286 85.0143 193.286ZM91.9982 188.078C92.4602 187.098 93.3982 186.58 94.7562 186.58V187.546C94.6722 187.546 94.5882 187.532 94.5182 187.532C92.9782 187.532 92.0402 188.512 92.0402 190.248V194H91.0462V186.636H91.9982V188.078ZM100.308 186.58C102.1 186.58 103.332 187.616 103.332 189.73V194H102.338V189.828C102.338 188.274 101.526 187.476 100.126 187.476C98.5439 187.476 97.5499 188.456 97.5499 190.136V194H96.5559V186.636H97.5079V187.994C98.0399 187.098 99.0339 186.58 100.308 186.58ZM113.489 186.58C115.589 186.58 117.157 188.092 117.157 190.318C117.157 192.544 115.589 194.07 113.489 194.07C112.271 194.07 111.249 193.538 110.647 192.544V194H109.695V183.612H110.689V188.036C111.305 187.084 112.313 186.58 113.489 186.58ZM113.419 193.188C114.973 193.188 116.163 192.04 116.163 190.318C116.163 188.596 114.973 187.448 113.419 187.448C111.851 187.448 110.675 188.596 110.675 190.318C110.675 192.04 111.851 193.188 113.419 193.188ZM124.825 186.636H125.819V194H124.867V192.656C124.349 193.552 123.397 194.07 122.221 194.07C120.345 194.07 119.113 193.02 119.113 190.906V186.636H120.107V190.808C120.107 192.376 120.919 193.174 122.319 193.174C123.859 193.174 124.825 192.18 124.825 190.5V186.636ZM130.577 194.07C129.359 194.07 128.183 193.678 127.581 193.16L128.029 192.376C128.617 192.838 129.611 193.202 130.647 193.202C132.047 193.202 132.621 192.726 132.621 191.998C132.621 190.08 127.847 191.592 127.847 188.68C127.847 187.476 128.883 186.58 130.759 186.58C131.711 186.58 132.747 186.846 133.363 187.266L132.929 188.064C132.285 187.616 131.515 187.434 130.759 187.434C129.429 187.434 128.841 187.952 128.841 188.652C128.841 190.64 133.615 189.142 133.615 191.97C133.615 193.244 132.495 194.07 130.577 194.07ZM135.956 185.026C135.55 185.026 135.228 184.704 135.228 184.312C135.228 183.934 135.55 183.612 135.956 183.612C136.362 183.612 136.684 183.92 136.684 184.298C136.684 184.704 136.376 185.026 135.956 185.026ZM135.452 194V186.636H136.446V194H135.452ZM142.964 186.58C144.756 186.58 145.988 187.616 145.988 189.73V194H144.994V189.828C144.994 188.274 144.182 187.476 142.782 187.476C141.2 187.476 140.206 188.456 140.206 190.136V194H139.212V186.636H140.164V187.994C140.696 187.098 141.69 186.58 142.964 186.58ZM155.14 190.318C155.14 190.402 155.126 190.514 155.126 190.626H148.966C149.078 192.166 150.254 193.188 151.864 193.188C152.76 193.188 153.558 192.866 154.118 192.222L154.678 192.866C154.02 193.65 152.998 194.07 151.836 194.07C149.54 194.07 147.972 192.502 147.972 190.318C147.972 188.134 149.498 186.58 151.57 186.58C153.642 186.58 155.14 188.106 155.14 190.318ZM151.57 187.434C150.142 187.434 149.092 188.442 148.966 189.884H154.188C154.062 188.442 153.012 187.434 151.57 187.434ZM159.137 194.07C157.919 194.07 156.743 193.678 156.141 193.16L156.589 192.376C157.177 192.838 158.171 193.202 159.207 193.202C160.607 193.202 161.181 192.726 161.181 191.998C161.181 190.08 156.407 191.592 156.407 188.68C156.407 187.476 157.443 186.58 159.319 186.58C160.271 186.58 161.307 186.846 161.923 187.266L161.489 188.064C160.845 187.616 160.075 187.434 159.319 187.434C157.989 187.434 157.401 187.952 157.401 188.652C157.401 190.64 162.175 189.142 162.175 191.97C162.175 193.244 161.055 194.07 159.137 194.07ZM165.987 194.07C164.769 194.07 163.593 193.678 162.991 193.16L163.439 192.376C164.027 192.838 165.021 193.202 166.057 193.202C167.457 193.202 168.031 192.726 168.031 191.998C168.031 190.08 163.257 191.592 163.257 188.68C163.257 187.476 164.293 186.58 166.169 186.58C167.121 186.58 168.157 186.846 168.773 187.266L168.339 188.064C167.695 187.616 166.925 187.434 166.169 187.434C164.839 187.434 164.251 187.952 164.251 188.652C164.251 190.64 169.025 189.142 169.025 191.97C169.025 193.244 167.905 194.07 165.987 194.07ZM178.055 192.838L178.405 193.552C178.013 193.902 177.425 194.07 176.851 194.07C175.465 194.07 174.695 193.286 174.695 191.928V187.476H173.379V186.636H174.695V185.026H175.689V186.636H177.929V187.476H175.689V191.872C175.689 192.74 176.137 193.216 176.963 193.216C177.369 193.216 177.775 193.09 178.055 192.838ZM183.966 186.58C185.758 186.58 186.99 187.616 186.99 189.73V194H185.996V189.828C185.996 188.274 185.184 187.476 183.784 187.476C182.202 187.476 181.208 188.456 181.208 190.136V194H180.214V183.612H181.208V187.924C181.754 187.07 182.72 186.58 183.966 186.58ZM190.641 188.078C191.103 187.098 192.041 186.58 193.399 186.58V187.546C193.315 187.546 193.231 187.532 193.161 187.532C191.621 187.532 190.683 188.512 190.683 190.248V194H189.689V186.636H190.641V188.078ZM198.14 194.07C195.984 194.07 194.388 192.502 194.388 190.318C194.388 188.134 195.984 186.58 198.14 186.58C200.296 186.58 201.878 188.134 201.878 190.318C201.878 192.502 200.296 194.07 198.14 194.07ZM198.14 193.188C199.708 193.188 200.87 192.04 200.87 190.318C200.87 188.596 199.708 187.448 198.14 187.448C196.572 187.448 195.396 188.596 195.396 190.318C195.396 192.04 196.572 193.188 198.14 193.188ZM209.549 186.636H210.543V194H209.591V192.656C209.073 193.552 208.121 194.07 206.945 194.07C205.069 194.07 203.837 193.02 203.837 190.906V186.636H204.831V190.808C204.831 192.376 205.643 193.174 207.043 193.174C208.583 193.174 209.549 192.18 209.549 190.5V186.636ZM219.193 186.636H220.145V193.104C220.145 195.638 218.899 196.786 216.463 196.786C215.119 196.786 213.803 196.38 213.033 195.652L213.537 194.896C214.237 195.526 215.301 195.904 216.435 195.904C218.297 195.904 219.151 195.05 219.151 193.23V192.292C218.535 193.23 217.485 193.72 216.281 193.72C214.181 193.72 212.585 192.25 212.585 190.136C212.585 188.022 214.181 186.58 216.281 186.58C217.513 186.58 218.577 187.084 219.193 188.05V186.636ZM216.379 192.838C218.003 192.838 219.179 191.732 219.179 190.136C219.179 188.54 218.003 187.448 216.379 187.448C214.755 187.448 213.593 188.54 213.593 190.136C213.593 191.732 214.755 192.838 216.379 192.838ZM226.677 186.58C228.469 186.58 229.701 187.616 229.701 189.73V194H228.707V189.828C228.707 188.274 227.895 187.476 226.495 187.476C224.913 187.476 223.919 188.456 223.919 190.136V194H222.925V183.612H223.919V187.924C224.465 187.07 225.431 186.58 226.677 186.58ZM237.016 188.078C237.478 187.098 238.416 186.58 239.774 186.58V187.546C239.69 187.546 239.606 187.532 239.536 187.532C237.996 187.532 237.058 188.512 237.058 190.248V194H236.064V186.636H237.016V188.078ZM247.931 190.318C247.931 190.402 247.917 190.514 247.917 190.626H241.757C241.869 192.166 243.045 193.188 244.655 193.188C245.551 193.188 246.349 192.866 246.909 192.222L247.469 192.866C246.811 193.65 245.789 194.07 244.627 194.07C242.331 194.07 240.763 192.502 240.763 190.318C240.763 188.134 242.289 186.58 244.361 186.58C246.433 186.58 247.931 188.106 247.931 190.318ZM244.361 187.434C242.933 187.434 241.883 188.442 241.757 189.884H246.979C246.853 188.442 245.803 187.434 244.361 187.434ZM252.325 186.58C254.229 186.58 255.307 187.532 255.307 189.436V194H254.355V192.852C253.907 193.608 253.039 194.07 251.821 194.07C250.155 194.07 249.133 193.202 249.133 191.928C249.133 190.794 249.861 189.842 251.975 189.842H254.313V189.394C254.313 188.134 253.599 187.448 252.227 187.448C251.275 187.448 250.379 187.784 249.777 188.316L249.329 187.574C250.071 186.944 251.163 186.58 252.325 186.58ZM251.975 193.286C253.095 193.286 253.921 192.754 254.313 191.788V190.584H252.003C250.575 190.584 250.113 191.144 250.113 191.9C250.113 192.754 250.799 193.286 251.975 193.286ZM258.007 194V183.612H259.001V194H258.007ZM261.221 190.64V189.772H264.889V190.64H261.221ZM276.847 186.636H277.757L274.971 194H274.033L271.709 187.966L269.385 194H268.447L265.675 186.636H266.627L268.937 192.894L271.303 186.636H272.157L274.509 192.894L276.847 186.636ZM282.058 194.07C279.902 194.07 278.306 192.502 278.306 190.318C278.306 188.134 279.902 186.58 282.058 186.58C284.214 186.58 285.796 188.134 285.796 190.318C285.796 192.502 284.214 194.07 282.058 194.07ZM282.058 193.188C283.626 193.188 284.788 192.04 284.788 190.318C284.788 188.596 283.626 187.448 282.058 187.448C280.49 187.448 279.314 188.596 279.314 190.318C279.314 192.04 280.49 193.188 282.058 193.188ZM288.777 188.078C289.239 187.098 290.177 186.58 291.535 186.58V187.546C291.451 187.546 291.367 187.532 291.297 187.532C289.757 187.532 288.819 188.512 288.819 190.248V194H287.825V186.636H288.777V188.078ZM293.335 194V183.612H294.329V194H293.335ZM302.821 183.612H303.815V194H302.863V192.544C302.261 193.538 301.239 194.07 300.021 194.07C297.921 194.07 296.353 192.544 296.353 190.318C296.353 188.092 297.921 186.58 300.021 186.58C301.197 186.58 302.205 187.084 302.821 188.036V183.612ZM300.105 193.188C301.659 193.188 302.835 192.04 302.835 190.318C302.835 188.596 301.659 187.448 300.105 187.448C298.537 187.448 297.361 188.596 297.361 190.318C297.361 192.04 298.537 193.188 300.105 193.188ZM316.673 190.318C316.673 190.402 316.659 190.514 316.659 190.626H310.499C310.611 192.166 311.787 193.188 313.397 193.188C314.293 193.188 315.091 192.866 315.651 192.222L316.211 192.866C315.553 193.65 314.531 194.07 313.369 194.07C311.073 194.07 309.505 192.502 309.505 190.318C309.505 188.134 311.031 186.58 313.103 186.58C315.175 186.58 316.673 188.106 316.673 190.318ZM313.103 187.434C311.675 187.434 310.625 188.442 310.499 189.884H315.721C315.595 188.442 314.545 187.434 313.103 187.434ZM324.315 194H323.181L320.843 190.92L318.491 194H317.371L320.283 190.22L317.511 186.636H318.631L320.843 189.52L323.055 186.636H324.147L321.375 190.22L324.315 194ZM329.764 186.58C331.864 186.58 333.432 188.092 333.432 190.318C333.432 192.558 331.864 194.07 329.764 194.07C328.588 194.07 327.58 193.566 326.964 192.614V196.716H325.97V186.636H326.922V188.092C327.524 187.112 328.546 186.58 329.764 186.58ZM329.694 193.188C331.248 193.188 332.438 192.04 332.438 190.318C332.438 188.61 331.248 187.448 329.694 187.448C328.126 187.448 326.95 188.61 326.95 190.318C326.95 192.04 328.126 193.188 329.694 193.188ZM338.468 194.07C336.312 194.07 334.716 192.502 334.716 190.318C334.716 188.134 336.312 186.58 338.468 186.58C340.624 186.58 342.206 188.134 342.206 190.318C342.206 192.502 340.624 194.07 338.468 194.07ZM338.468 193.188C340.036 193.188 341.198 192.04 341.198 190.318C341.198 188.596 340.036 187.448 338.468 187.448C336.9 187.448 335.724 188.596 335.724 190.318C335.724 192.04 336.9 193.188 338.468 193.188ZM346.21 194.07C344.992 194.07 343.816 193.678 343.214 193.16L343.662 192.376C344.25 192.838 345.244 193.202 346.28 193.202C347.68 193.202 348.254 192.726 348.254 191.998C348.254 190.08 343.48 191.592 343.48 188.68C343.48 187.476 344.516 186.58 346.392 186.58C347.344 186.58 348.38 186.846 348.996 187.266L348.562 188.064C347.918 187.616 347.148 187.434 346.392 187.434C345.062 187.434 344.474 187.952 344.474 188.652C344.474 190.64 349.248 189.142 349.248 191.97C349.248 193.244 348.128 194.07 346.21 194.07ZM356.727 186.636H357.721V194H356.769V192.656C356.251 193.552 355.299 194.07 354.123 194.07C352.247 194.07 351.015 193.02 351.015 190.906V186.636H352.009V190.808C352.009 192.376 352.821 193.174 354.221 193.174C355.761 193.174 356.727 192.18 356.727 190.5V186.636ZM361.457 188.078C361.919 187.098 362.857 186.58 364.215 186.58V187.546C364.131 187.546 364.047 187.532 363.977 187.532C362.437 187.532 361.499 188.512 361.499 190.248V194H360.505V186.636H361.457V188.078ZM372.373 190.318C372.373 190.402 372.359 190.514 372.359 190.626H366.199C366.311 192.166 367.487 193.188 369.097 193.188C369.993 193.188 370.791 192.866 371.351 192.222L371.911 192.866C371.253 193.65 370.231 194.07 369.069 194.07C366.773 194.07 365.205 192.502 365.205 190.318C365.205 188.134 366.731 186.58 368.803 186.58C370.875 186.58 372.373 188.106 372.373 190.318ZM368.803 187.434C367.375 187.434 366.325 188.442 366.199 189.884H371.421C371.295 188.442 370.245 187.434 368.803 187.434ZM374.508 192.544C374.942 192.544 375.25 192.88 375.25 193.3C375.25 193.538 375.194 193.72 375.054 194.112L374.466 196.044H373.794L374.27 194.014C373.976 193.93 373.766 193.664 373.766 193.3C373.766 192.866 374.088 192.544 374.508 192.544ZM56.8529 206.58C58.9529 206.58 60.5209 208.092 60.5209 210.318C60.5209 212.558 58.9529 214.07 56.8529 214.07C55.6769 214.07 54.6689 213.566 54.0529 212.614V216.716H53.0589V206.636H54.0109V208.092C54.6129 207.112 55.6349 206.58 56.8529 206.58ZM56.7829 213.188C58.3369 213.188 59.5269 212.04 59.5269 210.318C59.5269 208.61 58.3369 207.448 56.7829 207.448C55.2149 207.448 54.0389 208.61 54.0389 210.318C54.0389 212.04 55.2149 213.188 56.7829 213.188ZM63.4991 208.078C63.9611 207.098 64.8991 206.58 66.2571 206.58V207.546C66.1731 207.546 66.0891 207.532 66.0191 207.532C64.4791 207.532 63.5411 208.512 63.5411 210.248V214H62.5471V206.636H63.4991V208.078ZM70.9985 214.07C68.8425 214.07 67.2465 212.502 67.2465 210.318C67.2465 208.134 68.8425 206.58 70.9985 206.58C73.1545 206.58 74.7365 208.134 74.7365 210.318C74.7365 212.502 73.1545 214.07 70.9985 214.07ZM70.9985 213.188C72.5665 213.188 73.7285 212.04 73.7285 210.318C73.7285 208.596 72.5665 207.448 70.9985 207.448C69.4305 207.448 68.2545 208.596 68.2545 210.318C68.2545 212.04 69.4305 213.188 70.9985 213.188ZM79.2019 204.382C78.3479 204.382 77.8999 204.858 77.8999 205.768V206.636H80.1679V207.476H77.9279V214H76.9339V207.476H75.6179V206.636H76.9339V205.726C76.9339 204.41 77.7179 203.542 79.1599 203.542C79.7059 203.542 80.2659 203.696 80.6299 204.004L80.2939 204.746C80.0139 204.508 79.6219 204.382 79.2019 204.382ZM87.813 210.318C87.813 210.402 87.799 210.514 87.799 210.626H81.639C81.751 212.166 82.927 213.188 84.537 213.188C85.433 213.188 86.231 212.866 86.791 212.222L87.351 212.866C86.693 213.65 85.671 214.07 84.509 214.07C82.213 214.07 80.645 212.502 80.645 210.318C80.645 208.134 82.171 206.58 84.243 206.58C86.315 206.58 87.813 208.106 87.813 210.318ZM84.243 207.434C82.815 207.434 81.765 208.442 81.639 209.884H86.861C86.735 208.442 85.685 207.434 84.243 207.434ZM91.8102 214.07C90.5922 214.07 89.4162 213.678 88.8142 213.16L89.2622 212.376C89.8502 212.838 90.8442 213.202 91.8802 213.202C93.2802 213.202 93.8542 212.726 93.8542 211.998C93.8542 210.08 89.0802 211.592 89.0802 208.68C89.0802 207.476 90.1162 206.58 91.9922 206.58C92.9442 206.58 93.9802 206.846 94.5962 207.266L94.1622 208.064C93.5182 207.616 92.7482 207.434 91.9922 207.434C90.6622 207.434 90.0742 207.952 90.0742 208.652C90.0742 210.64 94.8482 209.142 94.8482 211.97C94.8482 213.244 93.7282 214.07 91.8102 214.07ZM98.6598 214.07C97.4418 214.07 96.2658 213.678 95.6638 213.16L96.1118 212.376C96.6998 212.838 97.6938 213.202 98.7298 213.202C100.13 213.202 100.704 212.726 100.704 211.998C100.704 210.08 95.9298 211.592 95.9298 208.68C95.9298 207.476 96.9658 206.58 98.8418 206.58C99.7938 206.58 100.83 206.846 101.446 207.266L101.012 208.064C100.368 207.616 99.5978 207.434 98.8418 207.434C97.5118 207.434 96.9238 207.952 96.9238 208.652C96.9238 210.64 101.698 209.142 101.698 211.97C101.698 213.244 100.578 214.07 98.6598 214.07ZM104.039 205.026C103.633 205.026 103.311 204.704 103.311 204.312C103.311 203.934 103.633 203.612 104.039 203.612C104.445 203.612 104.767 203.92 104.767 204.298C104.767 204.704 104.459 205.026 104.039 205.026ZM103.535 214V206.636H104.529V214H103.535ZM110.305 214.07C108.149 214.07 106.553 212.502 106.553 210.318C106.553 208.134 108.149 206.58 110.305 206.58C112.461 206.58 114.043 208.134 114.043 210.318C114.043 212.502 112.461 214.07 110.305 214.07ZM110.305 213.188C111.873 213.188 113.035 212.04 113.035 210.318C113.035 208.596 111.873 207.448 110.305 207.448C108.737 207.448 107.561 208.596 107.561 210.318C107.561 212.04 108.737 213.188 110.305 213.188ZM119.825 206.58C121.617 206.58 122.849 207.616 122.849 209.73V214H121.855V209.828C121.855 208.274 121.043 207.476 119.643 207.476C118.061 207.476 117.067 208.456 117.067 210.136V214H116.073V206.636H117.025V207.994C117.557 207.098 118.551 206.58 119.825 206.58ZM128.123 206.58C130.027 206.58 131.105 207.532 131.105 209.436V214H130.153V212.852C129.705 213.608 128.837 214.07 127.619 214.07C125.953 214.07 124.931 213.202 124.931 211.928C124.931 210.794 125.659 209.842 127.773 209.842H130.111V209.394C130.111 208.134 129.397 207.448 128.025 207.448C127.073 207.448 126.177 207.784 125.575 208.316L125.127 207.574C125.869 206.944 126.961 206.58 128.123 206.58ZM127.773 213.286C128.893 213.286 129.719 212.754 130.111 211.788V210.584H127.801C126.373 210.584 125.911 211.144 125.911 211.9C125.911 212.754 126.597 213.286 127.773 213.286ZM133.805 214V203.612H134.799V214H133.805ZM144.757 212.838L145.107 213.552C144.715 213.902 144.127 214.07 143.553 214.07C142.167 214.07 141.397 213.286 141.397 211.928V207.476H140.081V206.636H141.397V205.026H142.391V206.636H144.631V207.476H142.391V211.872C142.391 212.74 142.839 213.216 143.665 213.216C144.071 213.216 144.477 213.09 144.757 212.838ZM147.868 208.078C148.33 207.098 149.268 206.58 150.626 206.58V207.546C150.542 207.546 150.458 207.532 150.388 207.532C148.848 207.532 147.91 208.512 147.91 210.248V214H146.916V206.636H147.868V208.078ZM154.988 206.58C156.892 206.58 157.97 207.532 157.97 209.436V214H157.018V212.852C156.57 213.608 155.702 214.07 154.484 214.07C152.818 214.07 151.796 213.202 151.796 211.928C151.796 210.794 152.524 209.842 154.638 209.842H156.976V209.394C156.976 208.134 156.262 207.448 154.89 207.448C153.938 207.448 153.042 207.784 152.44 208.316L151.992 207.574C152.734 206.944 153.826 206.58 154.988 206.58ZM154.638 213.286C155.758 213.286 156.584 212.754 156.976 211.788V210.584H154.666C153.238 210.584 152.776 211.144 152.776 211.9C152.776 212.754 153.462 213.286 154.638 213.286ZM161.174 205.026C160.768 205.026 160.446 204.704 160.446 204.312C160.446 203.934 160.768 203.612 161.174 203.612C161.58 203.612 161.902 203.92 161.902 204.298C161.902 204.704 161.594 205.026 161.174 205.026ZM160.67 214V206.636H161.664V214H160.67ZM168.182 206.58C169.974 206.58 171.206 207.616 171.206 209.73V214H170.212V209.828C170.212 208.274 169.4 207.476 168 207.476C166.418 207.476 165.424 208.456 165.424 210.136V214H164.43V206.636H165.382V207.994C165.914 207.098 166.908 206.58 168.182 206.58ZM174.409 205.026C174.003 205.026 173.681 204.704 173.681 204.312C173.681 203.934 174.003 203.612 174.409 203.612C174.815 203.612 175.137 203.92 175.137 204.298C175.137 204.704 174.829 205.026 174.409 205.026ZM173.905 214V206.636H174.899V214H173.905ZM181.416 206.58C183.208 206.58 184.44 207.616 184.44 209.73V214H183.446V209.828C183.446 208.274 182.634 207.476 181.234 207.476C179.652 207.476 178.658 208.456 178.658 210.136V214H177.664V206.636H178.616V207.994C179.148 207.098 180.142 206.58 181.416 206.58ZM193.032 206.636H193.984V213.104C193.984 215.638 192.738 216.786 190.302 216.786C188.958 216.786 187.642 216.38 186.872 215.652L187.376 214.896C188.076 215.526 189.14 215.904 190.274 215.904C192.136 215.904 192.99 215.05 192.99 213.23V212.292C192.374 213.23 191.324 213.72 190.12 213.72C188.02 213.72 186.424 212.25 186.424 210.136C186.424 208.022 188.02 206.58 190.12 206.58C191.352 206.58 192.416 207.084 193.032 208.05V206.636ZM190.218 212.838C191.842 212.838 193.018 211.732 193.018 210.136C193.018 208.54 191.842 207.448 190.218 207.448C188.594 207.448 187.432 208.54 187.432 210.136C187.432 211.732 188.594 212.838 190.218 212.838ZM196.876 212.544C197.31 212.544 197.618 212.88 197.618 213.3C197.618 213.538 197.562 213.72 197.422 214.112L196.834 216.044H196.162L196.638 214.014C196.344 213.93 196.134 213.664 196.134 213.3C196.134 212.866 196.456 212.544 196.876 212.544ZM205.971 206.58C207.875 206.58 208.953 207.532 208.953 209.436V214H208.001V212.852C207.553 213.608 206.685 214.07 205.467 214.07C203.801 214.07 202.779 213.202 202.779 211.928C202.779 210.794 203.507 209.842 205.621 209.842H207.959V209.394C207.959 208.134 207.245 207.448 205.873 207.448C204.921 207.448 204.025 207.784 203.423 208.316L202.975 207.574C203.717 206.944 204.809 206.58 205.971 206.58ZM205.621 213.286C206.741 213.286 207.567 212.754 207.959 211.788V210.584H205.649C204.221 210.584 203.759 211.144 203.759 211.9C203.759 212.754 204.445 213.286 205.621 213.286ZM215.405 206.58C217.197 206.58 218.429 207.616 218.429 209.73V214H217.435V209.828C217.435 208.274 216.623 207.476 215.223 207.476C213.641 207.476 212.647 208.456 212.647 210.136V214H211.653V206.636H212.605V207.994C213.137 207.098 214.131 206.58 215.405 206.58ZM226.881 203.612H227.875V214H226.923V212.544C226.321 213.538 225.299 214.07 224.081 214.07C221.981 214.07 220.413 212.544 220.413 210.318C220.413 208.092 221.981 206.58 224.081 206.58C225.257 206.58 226.265 207.084 226.881 208.036V203.612ZM224.165 213.188C225.719 213.188 226.895 212.04 226.895 210.318C226.895 208.596 225.719 207.448 224.165 207.448C222.597 207.448 221.421 208.596 221.421 210.318C221.421 212.04 222.597 213.188 224.165 213.188ZM236.281 214.07C235.063 214.07 233.887 213.678 233.285 213.16L233.733 212.376C234.321 212.838 235.315 213.202 236.351 213.202C237.751 213.202 238.325 212.726 238.325 211.998C238.325 210.08 233.551 211.592 233.551 208.68C233.551 207.476 234.587 206.58 236.463 206.58C237.415 206.58 238.451 206.846 239.067 207.266L238.633 208.064C237.989 207.616 237.219 207.434 236.463 207.434C235.133 207.434 234.545 207.952 234.545 208.652C234.545 210.64 239.319 209.142 239.319 211.97C239.319 213.244 238.199 214.07 236.281 214.07ZM244.685 212.838L245.035 213.552C244.643 213.902 244.055 214.07 243.481 214.07C242.095 214.07 241.325 213.286 241.325 211.928V207.476H240.009V206.636H241.325V205.026H242.319V206.636H244.559V207.476H242.319V211.872C242.319 212.74 242.767 213.216 243.593 213.216C243.999 213.216 244.405 213.09 244.685 212.838ZM247.796 208.078C248.258 207.098 249.196 206.58 250.554 206.58V207.546C250.47 207.546 250.386 207.532 250.316 207.532C248.776 207.532 247.838 208.512 247.838 210.248V214H246.844V206.636H247.796V208.078ZM258.105 206.636H259.099V214H258.147V212.656C257.629 213.552 256.677 214.07 255.501 214.07C253.625 214.07 252.393 213.02 252.393 210.906V206.636H253.387V210.808C253.387 212.376 254.199 213.174 255.599 213.174C257.139 213.174 258.105 212.18 258.105 210.5V206.636ZM264.935 214.07C262.737 214.07 261.141 212.516 261.141 210.318C261.141 208.12 262.737 206.58 264.935 206.58C266.181 206.58 267.231 207.07 267.819 208.036L267.077 208.54C266.573 207.798 265.789 207.448 264.935 207.448C263.325 207.448 262.149 208.596 262.149 210.318C262.149 212.054 263.325 213.188 264.935 213.188C265.789 213.188 266.573 212.852 267.077 212.11L267.819 212.614C267.231 213.566 266.181 214.07 264.935 214.07ZM273.382 212.838L273.732 213.552C273.34 213.902 272.752 214.07 272.178 214.07C270.792 214.07 270.022 213.286 270.022 211.928V207.476H268.706V206.636H270.022V205.026H271.016V206.636H273.256V207.476H271.016V211.872C271.016 212.74 271.464 213.216 272.29 213.216C272.696 213.216 273.102 213.09 273.382 212.838ZM281.183 206.636H282.177V214H281.225V212.656C280.707 213.552 279.755 214.07 278.579 214.07C276.703 214.07 275.471 213.02 275.471 210.906V206.636H276.465V210.808C276.465 212.376 277.277 213.174 278.677 213.174C280.217 213.174 281.183 212.18 281.183 210.5V206.636ZM285.913 208.078C286.375 207.098 287.313 206.58 288.671 206.58V207.546C288.587 207.546 288.503 207.532 288.433 207.532C286.893 207.532 285.955 208.512 285.955 210.248V214H284.961V206.636H285.913V208.078ZM296.829 210.318C296.829 210.402 296.815 210.514 296.815 210.626H290.655C290.767 212.166 291.943 213.188 293.553 213.188C294.449 213.188 295.247 212.866 295.807 212.222L296.367 212.866C295.709 213.65 294.687 214.07 293.525 214.07C291.229 214.07 289.661 212.502 289.661 210.318C289.661 208.134 291.187 206.58 293.259 206.58C295.331 206.58 296.829 208.106 296.829 210.318ZM293.259 207.434C291.831 207.434 290.781 208.442 290.655 209.884H295.877C295.751 208.442 294.701 207.434 293.259 207.434ZM304.578 203.612H305.572V214H304.62V212.544C304.018 213.538 302.996 214.07 301.778 214.07C299.678 214.07 298.11 212.544 298.11 210.318C298.11 208.092 299.678 206.58 301.778 206.58C302.954 206.58 303.962 207.084 304.578 208.036V203.612ZM301.862 213.188C303.416 213.188 304.592 212.04 304.592 210.318C304.592 208.596 303.416 207.448 301.862 207.448C300.294 207.448 299.118 208.596 299.118 210.318C299.118 212.04 300.294 213.188 301.862 213.188ZM314.58 206.58C316.484 206.58 317.562 207.532 317.562 209.436V214H316.61V212.852C316.162 213.608 315.294 214.07 314.076 214.07C312.41 214.07 311.388 213.202 311.388 211.928C311.388 210.794 312.116 209.842 314.23 209.842H316.568V209.394C316.568 208.134 315.854 207.448 314.482 207.448C313.53 207.448 312.634 207.784 312.032 208.316L311.584 207.574C312.326 206.944 313.418 206.58 314.58 206.58ZM314.23 213.286C315.35 213.286 316.176 212.754 316.568 211.788V210.584H314.258C312.83 210.584 312.368 211.144 312.368 211.9C312.368 212.754 313.054 213.286 314.23 213.286ZM323.341 214.07C321.143 214.07 319.547 212.516 319.547 210.318C319.547 208.12 321.143 206.58 323.341 206.58C324.587 206.58 325.637 207.07 326.225 208.036L325.483 208.54C324.979 207.798 324.195 207.448 323.341 207.448C321.731 207.448 320.555 208.596 320.555 210.318C320.555 212.054 321.731 213.188 323.341 213.188C324.195 213.188 324.979 212.852 325.483 212.11L326.225 212.614C325.637 213.566 324.587 214.07 323.341 214.07ZM330.754 206.58C332.658 206.58 333.736 207.532 333.736 209.436V214H332.784V212.852C332.336 213.608 331.468 214.07 330.25 214.07C328.584 214.07 327.562 213.202 327.562 211.928C327.562 210.794 328.29 209.842 330.404 209.842H332.742V209.394C332.742 208.134 332.028 207.448 330.656 207.448C329.704 207.448 328.808 207.784 328.206 208.316L327.758 207.574C328.5 206.944 329.592 206.58 330.754 206.58ZM330.404 213.286C331.524 213.286 332.35 212.754 332.742 211.788V210.584H330.432C329.004 210.584 328.542 211.144 328.542 211.9C328.542 212.754 329.228 213.286 330.404 213.286ZM342.189 203.612H343.183V214H342.231V212.544C341.629 213.538 340.607 214.07 339.389 214.07C337.289 214.07 335.721 212.544 335.721 210.318C335.721 208.092 337.289 206.58 339.389 206.58C340.565 206.58 341.573 207.084 342.189 208.036V203.612ZM339.473 213.188C341.027 213.188 342.203 212.04 342.203 210.318C342.203 208.596 341.027 207.448 339.473 207.448C337.905 207.448 336.729 208.596 336.729 210.318C336.729 212.04 337.905 213.188 339.473 213.188ZM352.377 210.318C352.377 210.402 352.363 210.514 352.363 210.626H346.203C346.315 212.166 347.491 213.188 349.101 213.188C349.997 213.188 350.795 212.866 351.355 212.222L351.915 212.866C351.257 213.65 350.235 214.07 349.073 214.07C346.777 214.07 345.209 212.502 345.209 210.318C345.209 208.134 346.735 206.58 348.807 206.58C350.879 206.58 352.377 208.106 352.377 210.318ZM348.807 207.434C347.379 207.434 346.329 208.442 346.203 209.884H351.425C351.299 208.442 350.249 207.434 348.807 207.434ZM363.585 206.58C365.377 206.58 366.553 207.616 366.553 209.73V214H365.559V209.828C365.559 208.274 364.775 207.476 363.445 207.476C361.933 207.476 360.981 208.456 360.981 210.136V214H359.987V209.828C359.987 208.274 359.203 207.476 357.859 207.476C356.361 207.476 355.395 208.456 355.395 210.136V214H354.401V206.636H355.353V207.98C355.871 207.098 356.823 206.58 358.055 206.58C359.273 206.58 360.225 207.098 360.673 208.134C361.205 207.182 362.255 206.58 363.585 206.58ZM369.752 205.026C369.346 205.026 369.024 204.704 369.024 204.312C369.024 203.934 369.346 203.612 369.752 203.612C370.158 203.612 370.48 203.92 370.48 204.298C370.48 204.704 370.172 205.026 369.752 205.026ZM369.248 214V206.636H370.242V214H369.248ZM376.06 214.07C373.862 214.07 372.266 212.516 372.266 210.318C372.266 208.12 373.862 206.58 376.06 206.58C377.306 206.58 378.356 207.07 378.944 208.036L378.202 208.54C377.698 207.798 376.914 207.448 376.06 207.448C374.45 207.448 373.274 208.596 373.274 210.318C373.274 212.054 374.45 213.188 376.06 213.188C376.914 213.188 377.698 212.852 378.202 212.11L378.944 212.614C378.356 213.566 377.306 214.07 376.06 214.07ZM382.871 214.07C381.653 214.07 380.477 213.678 379.875 213.16L380.323 212.376C380.911 212.838 381.905 213.202 382.941 213.202C384.341 213.202 384.915 212.726 384.915 211.998C384.915 210.08 380.141 211.592 380.141 208.68C380.141 207.476 381.177 206.58 383.053 206.58C384.005 206.58 385.041 206.846 385.657 207.266L385.223 208.064C384.579 207.616 383.809 207.434 383.053 207.434C381.723 207.434 381.135 207.952 381.135 208.652C381.135 210.64 385.909 209.142 385.909 211.97C385.909 213.244 384.789 214.07 382.871 214.07ZM387.844 214.07C387.438 214.07 387.102 213.734 387.102 213.3C387.102 212.866 387.438 212.544 387.844 212.544C388.25 212.544 388.6 212.866 388.6 213.3C388.6 213.734 388.25 214.07 387.844 214.07ZM137.229 234L136.249 231.732H131.349L130.383 234H128.507L132.917 224.2H134.709L139.133 234H137.229ZM131.965 230.304H135.647L133.799 226.02L131.965 230.304ZM144.355 226.44C146.539 226.44 148.149 227.952 148.149 230.262C148.149 232.586 146.539 234.098 144.355 234.098C143.403 234.098 142.563 233.776 141.961 233.09V236.716H140.211V226.524H141.877V227.504C142.465 226.79 143.333 226.44 144.355 226.44ZM144.159 232.6C145.419 232.6 146.371 231.69 146.371 230.262C146.371 228.834 145.419 227.924 144.159 227.924C142.899 227.924 141.933 228.834 141.933 230.262C141.933 231.69 142.899 232.6 144.159 232.6ZM153.953 226.44C156.137 226.44 157.747 227.952 157.747 230.262C157.747 232.586 156.137 234.098 153.953 234.098C153.001 234.098 152.161 233.776 151.559 233.09V236.716H149.809V226.524H151.475V227.504C152.063 226.79 152.931 226.44 153.953 226.44ZM153.757 232.6C155.017 232.6 155.969 231.69 155.969 230.262C155.969 228.834 155.017 227.924 153.757 227.924C152.497 227.924 151.531 228.834 151.531 230.262C151.531 231.69 152.497 232.6 153.757 232.6ZM159.407 234V223.612H161.157V234H159.407ZM168.774 226.524H170.454L166.954 234.602C166.268 236.296 165.316 236.814 164.07 236.814C163.328 236.814 162.544 236.562 162.068 236.128L162.768 234.84C163.104 235.162 163.58 235.358 164.056 235.358C164.672 235.358 165.036 235.064 165.372 234.322L165.498 234.028L162.236 226.524H164.056L166.408 232.054L168.774 226.524ZM179.561 226.44C181.745 226.44 183.355 227.938 183.355 230.262C183.355 232.586 181.745 234.098 179.561 234.098C178.539 234.098 177.671 233.748 177.083 233.034V234H175.417V223.612H177.167V227.434C177.769 226.762 178.609 226.44 179.561 226.44ZM179.365 232.6C180.625 232.6 181.577 231.69 181.577 230.262C181.577 228.834 180.625 227.924 179.365 227.924C178.105 227.924 177.139 228.834 177.139 230.262C177.139 231.69 178.105 232.6 179.365 232.6ZM190.129 226.524H191.809L188.309 234.602C187.623 236.296 186.671 236.814 185.425 236.814C184.683 236.814 183.899 236.562 183.423 236.128L184.123 234.84C184.459 235.162 184.935 235.358 185.411 235.358C186.027 235.358 186.391 235.064 186.727 234.322L186.853 234.028L183.591 226.524H185.411L187.763 232.054L190.129 226.524ZM200.412 228.246C202.26 228.484 203.198 229.59 203.198 231.06C203.198 232.712 201.952 234.14 199.32 234.14C197.934 234.14 196.548 233.72 195.638 233.006L196.422 231.592C197.122 232.18 198.186 232.558 199.292 232.558C200.594 232.558 201.364 231.984 201.364 231.074C201.364 230.192 200.72 229.618 199.236 229.618H198.34V228.372L200.566 225.726H196.114V224.2H202.792V225.418L200.412 228.246ZM203.884 224.2H207.776V234H205.956V225.726H203.884V224.2ZM215.816 234.14C214.584 234.14 213.464 233.636 212.792 232.726L213.828 231.48C214.36 232.208 215.004 232.6 215.774 232.6C216.782 232.6 217.3 231.998 217.3 230.794V225.726H213.814V224.2H219.12V230.696C219.12 233.006 217.972 234.14 215.816 234.14ZM224.36 226.44C226.516 226.44 227.762 227.462 227.762 229.618V234H226.11V233.09C225.69 233.734 224.878 234.098 223.758 234.098C222.05 234.098 220.972 233.16 220.972 231.858C220.972 230.612 221.812 229.632 224.08 229.632H226.012V229.52C226.012 228.498 225.396 227.896 224.15 227.896C223.31 227.896 222.442 228.176 221.882 228.638L221.196 227.364C221.994 226.748 223.156 226.44 224.36 226.44ZM224.122 232.824C224.976 232.824 225.718 232.432 226.012 231.662V230.794H224.206C223.016 230.794 222.694 231.242 222.694 231.788C222.694 232.418 223.226 232.824 224.122 232.824ZM234.25 226.44C236.042 226.44 237.372 227.462 237.372 229.716V234H235.622V229.94C235.622 228.61 234.964 227.966 233.844 227.966C232.598 227.966 231.758 228.722 231.758 230.22V234H230.008V226.524H231.674V227.49C232.248 226.804 233.158 226.44 234.25 226.44ZM245.08 226.524H246.83V234H245.164V233.048C244.604 233.734 243.722 234.098 242.756 234.098C240.838 234.098 239.536 233.048 239.536 230.794V226.524H241.286V230.556C241.286 231.914 241.93 232.558 243.036 232.558C244.254 232.558 245.08 231.802 245.08 230.304V226.524ZM251.978 226.44C254.134 226.44 255.38 227.462 255.38 229.618V234H253.728V233.09C253.308 233.734 252.496 234.098 251.376 234.098C249.668 234.098 248.59 233.16 248.59 231.858C248.59 230.612 249.43 229.632 251.698 229.632H253.63V229.52C253.63 228.498 253.014 227.896 251.768 227.896C250.928 227.896 250.06 228.176 249.5 228.638L248.814 227.364C249.612 226.748 250.774 226.44 251.978 226.44ZM251.74 232.824C252.594 232.824 253.336 232.432 253.63 231.662V230.794H251.824C250.634 230.794 250.312 231.242 250.312 231.788C250.312 232.418 250.844 232.824 251.74 232.824ZM259.292 227.616C259.796 226.832 260.706 226.44 261.952 226.44V228.106C261.798 228.078 261.672 228.064 261.546 228.064C260.216 228.064 259.376 228.848 259.376 230.374V234H257.626V226.524H259.292V227.616ZM269.03 226.524H270.71L267.21 234.602C266.524 236.296 265.572 236.814 264.326 236.814C263.584 236.814 262.8 236.562 262.324 236.128L263.024 234.84C263.36 235.162 263.836 235.358 264.312 235.358C264.928 235.358 265.292 235.064 265.628 234.322L265.754 234.028L262.492 226.524H264.312L266.664 232.054L269.03 226.524ZM277.618 232.46H282.238V234H275.014V232.782L278.906 229.086C279.858 228.176 280.026 227.602 280.026 227.056C280.026 226.16 279.41 225.642 278.206 225.642C277.254 225.642 276.456 225.964 275.91 226.664L274.636 225.684C275.392 224.662 276.75 224.06 278.36 224.06C280.488 224.06 281.86 225.138 281.86 226.874C281.86 227.826 281.594 228.694 280.236 229.968L277.618 232.46ZM287.336 234.14C285.012 234.14 283.248 232.32 283.248 229.1C283.248 225.88 285.012 224.06 287.336 224.06C289.674 224.06 291.438 225.88 291.438 229.1C291.438 232.32 289.674 234.14 287.336 234.14ZM287.336 232.558C288.68 232.558 289.604 231.466 289.604 229.1C289.604 226.734 288.68 225.642 287.336 225.642C286.006 225.642 285.082 226.734 285.082 229.1C285.082 231.466 286.006 232.558 287.336 232.558ZM295.077 232.46H299.697V234H292.473V232.782L296.365 229.086C297.317 228.176 297.485 227.602 297.485 227.056C297.485 226.16 296.869 225.642 295.665 225.642C294.713 225.642 293.915 225.964 293.369 226.664L292.095 225.684C292.851 224.662 294.209 224.06 295.819 224.06C297.947 224.06 299.319 225.138 299.319 226.874C299.319 227.826 299.053 228.694 297.695 229.968L295.077 232.46ZM305.159 227.952C307.091 227.952 308.533 229.128 308.533 230.962C308.533 232.908 306.951 234.14 304.949 234.14C302.275 234.14 300.707 232.418 300.707 229.268C300.707 225.908 302.667 224.06 305.509 224.06C306.489 224.06 307.427 224.27 308.085 224.69L307.413 226.062C306.881 225.712 306.237 225.586 305.551 225.586C303.703 225.586 302.541 226.734 302.541 228.96V228.974C303.129 228.288 304.067 227.952 305.159 227.952ZM304.851 232.712C305.985 232.712 306.769 232.068 306.769 231.046C306.769 230.024 305.999 229.38 304.809 229.38C303.633 229.38 302.821 230.094 302.821 231.06C302.821 231.984 303.549 232.712 304.851 232.712ZM310.713 234.098C310.083 234.098 309.565 233.608 309.565 232.936C309.565 232.236 310.083 231.774 310.713 231.774C311.343 231.774 311.861 232.236 311.861 232.936C311.861 233.608 311.343 234.098 310.713 234.098Z" fill="black"/>
<path d="M100.151 143.396C92.9899 143.396 87.6439 138.413 87.6439 131.45C87.6439 124.487 92.9899 119.504 100.184 119.504C104.177 119.504 107.51 120.956 109.688 123.596L106.256 126.764C104.705 124.982 102.758 124.058 100.448 124.058C96.1249 124.058 93.0559 127.094 93.0559 131.45C93.0559 135.806 96.1249 138.842 100.448 138.842C102.758 138.842 104.705 137.918 106.256 136.103L109.688 139.271C107.51 141.944 104.177 143.396 100.151 143.396ZM113.298 143V119.9H118.644V138.644H130.227V143H113.298ZM144.014 143.396C136.721 143.396 131.375 138.314 131.375 131.45C131.375 124.586 136.721 119.504 144.014 119.504C151.274 119.504 156.653 124.553 156.653 131.45C156.653 138.347 151.274 143.396 144.014 143.396ZM144.014 138.842C148.139 138.842 151.241 135.839 151.241 131.45C151.241 127.061 148.139 124.058 144.014 124.058C139.889 124.058 136.787 127.061 136.787 131.45C136.787 135.839 139.889 138.842 144.014 138.842ZM168.261 143.396C164.598 143.396 160.902 142.307 158.856 140.723L160.671 136.697C162.618 138.116 165.522 139.106 168.294 139.106C171.462 139.106 172.749 138.05 172.749 136.631C172.749 132.308 159.318 135.278 159.318 126.698C159.318 122.771 162.486 119.504 169.053 119.504C171.957 119.504 174.927 120.197 177.072 121.55L175.422 125.609C173.277 124.388 171.066 123.794 169.02 123.794C165.852 123.794 164.631 124.982 164.631 126.434C164.631 130.691 178.062 127.754 178.062 136.235C178.062 140.096 174.861 143.396 168.261 143.396ZM181.715 143V119.9H187.061V143H181.715ZM208.449 119.9H213.729V143H209.34L197.823 128.975V143H192.543V119.9H196.965L208.449 133.925V119.9ZM234.804 137.852V131.087H239.688V140.459C237.147 142.373 233.649 143.396 230.349 143.396C223.089 143.396 217.743 138.413 217.743 131.45C217.743 124.487 223.089 119.504 230.448 119.504C234.507 119.504 237.873 120.89 240.117 123.497L236.685 126.665C235.002 124.883 233.055 124.058 230.712 124.058C226.224 124.058 223.155 127.061 223.155 131.45C223.155 135.773 226.224 138.842 230.646 138.842C232.098 138.842 233.451 138.578 234.804 137.852ZM261.589 143.396C257.926 143.396 254.23 142.307 252.184 140.723L253.999 136.697C255.946 138.116 258.85 139.106 261.622 139.106C264.79 139.106 266.077 138.05 266.077 136.631C266.077 132.308 252.646 135.278 252.646 126.698C252.646 122.771 255.814 119.504 262.381 119.504C265.285 119.504 268.255 120.197 270.4 121.55L268.75 125.609C266.605 124.388 264.394 123.794 262.348 123.794C259.18 123.794 257.959 124.982 257.959 126.434C257.959 130.691 271.39 127.754 271.39 136.235C271.39 140.096 268.189 143.396 261.589 143.396ZM286.23 143.396C278.937 143.396 273.591 138.314 273.591 131.45C273.591 124.586 278.937 119.504 286.23 119.504C293.49 119.504 298.869 124.553 298.869 131.45C298.869 138.347 293.49 143.396 286.23 143.396ZM286.23 138.842C290.355 138.842 293.457 135.839 293.457 131.45C293.457 127.061 290.355 124.058 286.23 124.058C282.105 124.058 279.003 127.061 279.003 131.45C279.003 135.839 282.105 138.842 286.23 138.842ZM314.074 143.396C306.781 143.396 301.435 138.314 301.435 131.45C301.435 124.586 306.781 119.504 314.074 119.504C321.334 119.504 326.713 124.553 326.713 131.45C326.713 138.347 321.334 143.396 314.074 143.396ZM314.074 138.842C318.199 138.842 321.301 135.839 321.301 131.45C321.301 127.061 318.199 124.058 314.074 124.058C309.949 124.058 306.847 127.061 306.847 131.45C306.847 135.839 309.949 138.842 314.074 138.842ZM346.637 119.9H351.917V143H347.528L336.011 128.975V143H330.731V119.9H335.153L346.637 133.925V119.9Z" fill="#A22877"/>
<rect x="89" y="61" width="264" height="39" rx="3" fill="white"/>
<path d="M144.986 88H142.28L142.258 77.792L137.198 86.24H135.922L130.862 77.924V88H128.134V72.6H130.488L136.604 82.808L142.61 72.6H144.964L144.986 88ZM160.058 79.992C161.708 80.52 162.83 81.818 162.83 83.82C162.83 86.46 160.762 88 156.802 88H149.146V72.6H156.362C160.058 72.6 162.038 74.162 162.038 76.604C162.038 78.188 161.246 79.354 160.058 79.992ZM156.054 74.844H152.006V79.09H156.054C158.034 79.09 159.156 78.386 159.156 76.978C159.156 75.548 158.034 74.844 156.054 74.844ZM156.626 85.756C158.782 85.756 159.948 85.074 159.948 83.534C159.948 81.994 158.782 81.312 156.626 81.312H152.006V85.756H156.626ZM177.41 88L175.87 84.436H168.17L166.652 88H163.704L170.634 72.6H173.45L180.402 88H177.41ZM169.138 82.192H174.924L172.02 75.46L169.138 82.192ZM199.969 88L198.429 84.436H190.729L189.211 88H186.263L193.193 72.6H196.009L202.961 88H199.969ZM191.697 82.192H197.483L194.579 75.46L191.697 82.192ZM213.304 71.676H216.054V88H213.414V86.482C212.49 87.604 211.126 88.154 209.52 88.154C206.11 88.154 203.58 85.778 203.58 82.126C203.58 78.474 206.11 76.12 209.52 76.12C211.038 76.12 212.38 76.626 213.304 77.704V71.676ZM209.85 85.8C211.83 85.8 213.348 84.37 213.348 82.126C213.348 79.882 211.83 78.452 209.85 78.452C207.87 78.452 206.352 79.882 206.352 82.126C206.352 84.37 207.87 85.8 209.85 85.8ZM234.48 76.12C237.318 76.12 239.298 77.726 239.298 81.268V88H236.548V81.62C236.548 79.53 235.58 78.518 233.908 78.518C232.104 78.518 230.85 79.706 230.85 82.038V88H228.1V81.62C228.1 79.53 227.132 78.518 225.46 78.518C223.634 78.518 222.402 79.706 222.402 82.038V88H219.652V76.252H222.27V77.748C223.15 76.692 224.514 76.12 226.12 76.12C227.836 76.12 229.266 76.758 230.08 78.078C231.026 76.868 232.61 76.12 234.48 76.12ZM244.198 74.316C243.186 74.316 242.438 73.59 242.438 72.666C242.438 71.742 243.186 71.016 244.198 71.016C245.21 71.016 245.958 71.698 245.958 72.6C245.958 73.568 245.232 74.316 244.198 74.316ZM242.812 88V76.252H245.562V88H242.812ZM252.801 88.154C250.843 88.154 248.885 87.582 247.829 86.834L248.885 84.744C249.919 85.426 251.503 85.91 252.977 85.91C254.715 85.91 255.441 85.426 255.441 84.612C255.441 82.368 248.181 84.48 248.181 79.794C248.181 77.572 250.183 76.12 253.351 76.12C254.913 76.12 256.695 76.494 257.751 77.132L256.695 79.222C255.573 78.562 254.451 78.342 253.329 78.342C251.657 78.342 250.865 78.892 250.865 79.662C250.865 82.038 258.125 79.926 258.125 84.524C258.125 86.724 256.101 88.154 252.801 88.154ZM264.123 88.154C262.165 88.154 260.207 87.582 259.151 86.834L260.207 84.744C261.241 85.426 262.825 85.91 264.299 85.91C266.037 85.91 266.763 85.426 266.763 84.612C266.763 82.368 259.503 84.48 259.503 79.794C259.503 77.572 261.505 76.12 264.673 76.12C266.235 76.12 268.017 76.494 269.073 77.132L268.017 79.222C266.895 78.562 265.773 78.342 264.651 78.342C262.979 78.342 262.187 78.892 262.187 79.662C262.187 82.038 269.447 79.926 269.447 84.524C269.447 86.724 267.423 88.154 264.123 88.154ZM273.202 74.316C272.19 74.316 271.442 73.59 271.442 72.666C271.442 71.742 272.19 71.016 273.202 71.016C274.214 71.016 274.962 71.698 274.962 72.6C274.962 73.568 274.236 74.316 273.202 74.316ZM271.816 88V76.252H274.566V88H271.816ZM283.455 88.154C279.847 88.154 277.207 85.646 277.207 82.126C277.207 78.606 279.847 76.12 283.455 76.12C287.107 76.12 289.725 78.606 289.725 82.126C289.725 85.646 287.107 88.154 283.455 88.154ZM283.455 85.8C285.457 85.8 286.953 84.37 286.953 82.126C286.953 79.882 285.457 78.452 283.455 78.452C281.475 78.452 279.979 79.882 279.979 82.126C279.979 84.37 281.475 85.8 283.455 85.8ZM299.021 76.12C301.837 76.12 303.927 77.726 303.927 81.268V88H301.177V81.62C301.177 79.53 300.143 78.518 298.383 78.518C296.425 78.518 295.105 79.706 295.105 82.06V88H292.355V76.252H294.973V77.77C295.875 76.692 297.305 76.12 299.021 76.12ZM311.045 88.154C309.087 88.154 307.129 87.582 306.073 86.834L307.129 84.744C308.163 85.426 309.747 85.91 311.221 85.91C312.959 85.91 313.685 85.426 313.685 84.612C313.685 82.368 306.425 84.48 306.425 79.794C306.425 77.572 308.427 76.12 311.595 76.12C313.157 76.12 314.939 76.494 315.995 77.132L314.939 79.222C313.817 78.562 312.695 78.342 311.573 78.342C309.901 78.342 309.109 78.892 309.109 79.662C309.109 82.038 316.369 79.926 316.369 84.524C316.369 86.724 314.345 88.154 311.045 88.154Z" fill="black"/>
</svg>
