<?xml version="1.0" encoding="UTF-8"?>
<svg id="Layer_1" xmlns="http://www.w3.org/2000/svg" version="1.1" viewBox="0 0 1080 359.6" width="1080" height="359.6">
  <!-- Generator: Adobe Illustrator 29.8.2, SVG Export Plug-In . SVG Version: 2.1.1 Build 3)  -->
  <defs>
    <style>
      .st0 {
        fill: #0c2165;
      }

      .st1, .st2, .st3 {
        fill-rule: evenodd;
      }

      .st1, .st4 {
        fill: #9f257f;
      }

      .st2 {
        fill: #a4d9d0;
      }

      .st5 {
        fill: #a3238e;
      }

      .st3 {
        fill: #f15f22;
      }

      .st6 {
        fill: #fff;
      }

      .st7 {
        fill: #4a4a4c;
      }

      .st8 {
        fill: #f9b5b5;
      }
    </style>
  </defs>
  <polygon class="st3" points="88.6 176 53.3 237.5 168 237.2 88.6 176"/>
  <g>
    <path class="st0" d="M419.9,159.5h-24.4l-4.7,11.2h-16.8l25.9-58h16.2l25.3,58h-17.1l-4.4-11.5h0v.3ZM415.2,147.4l-7.4-18.5-7.7,18.5h15Z"/>
    <path class="st0" d="M444.7,113h16.5v58h-16.8v-58h.3Z"/>
    <path class="st0" d="M523.2,171.6v-30.6l-15,25h-7.4l-14.7-24.4v30h-15.3v-58h13.8l20.3,33.5,20-33.3h13.5v58h-15.3v-.3Z"/>
    <path class="st0" d="M555,171c-4.4-1.2-7.9-2.6-10.9-4.7l5.3-12.1c2.6,1.8,5.6,2.9,9.1,4.1s6.8,1.8,10,1.8c6.2,0,9.4-1.5,9.4-4.7s-.9-2.9-2.6-3.5-4.7-1.8-8.5-2.6c-4.4-.9-7.9-2.1-10.9-2.9-2.9-1.2-5.3-2.9-7.7-5.3s-2.9-5.6-2.9-9.4,1.2-6.8,2.9-9.4c2.1-2.9,5-5,8.5-6.8,3.8-1.8,8.5-2.6,14.1-2.4s7.7.6,11.2,1.2c3.5.9,6.8,2.1,9.7,3.8l-5,12.1c-5.6-2.9-10.9-4.4-16.2-4.4s-5.6.6-7.4,1.5c-1.5.9-2.1,2.1-2.1,3.8s.9,2.6,2.6,3.5,4.7,1.8,8.5,2.6c4.4.9,8.2,2.1,10.9,2.9s5.3,2.9,7.7,5.3,3.2,5.6,2.9,9.4c0,3.5-1.2,6.8-2.9,9.4-2.1,2.9-5,5-8.5,6.8-3.8,1.8-8.5,2.6-14.1,2.6s-9.1-.6-13.8-1.8h.3v-.9h.3Z"/>
    <path class="st0" d="M626.2,113.9h6.2v58h-6.5v-58q.2,0,0,0h.3Z"/>
    <path class="st0" d="M698,114.2v58h-5.3l-37.1-47.1v47.1h-6.2v-58h5.3l37.1,47.1v-47.1h6.2Z"/>
    <path class="st0" d="M718.6,170.7c-3.8-1.5-7.1-3.2-9.1-5.6l2.4-4.7c2.1,2.1,5,3.8,8.2,5s7.1,2.1,10.9,2.1,9.1-.9,11.8-2.9c2.6-1.8,3.8-4.4,3.8-7.4s-.6-4.1-2.1-5.6-2.9-2.6-5.3-3.2c-2.1-.6-5-1.8-8.5-2.6s-7.7-2.1-10.6-3.2c-2.6-1.2-5-2.6-6.8-4.7s-2.6-5-2.6-8.5.6-5.6,2.4-7.9,3.8-4.4,7.4-5.9c3.2-1.5,7.4-2.1,11.8-2.1s6.5.6,9.7,1.5,5.9,2.1,8.2,3.8l-2.1,5c-2.4-1.8-5-2.9-7.7-3.5-2.6-.9-5.3-1.2-8.2-1.2-5,0-8.8.9-11.5,2.9s-3.8,4.4-3.8,7.7.6,4.1,2.1,5.6,3.2,2.6,5.3,3.2c2.1.6,5,1.8,8.5,2.6,4.4,1.2,7.7,2.1,10.3,2.9,2.6,1.2,5,2.6,6.8,4.7s2.6,5,2.6,8.5-.9,5.6-2.4,7.9c-1.8,2.4-3.8,4.4-7.4,5.6-3.2,1.5-7.4,2.1-12.1,2.1s-8.5-.6-12.4-2.1v.6-.6h.3Z"/>
    <path class="st0" d="M775.7,119.8h-20.3v-5.3h46.8v5.6h-20.3v52.4h-6.2v-52.7h0Z"/>
    <path class="st0" d="M810.4,114.8h6.2v58h-6.5v-58h.3Z"/>
    <path class="st0" d="M844.9,120.4h-20.3v-5.3h46.8v5.6h-20.3v52.4h-6.2v-52.7Z"/>
    <path class="st0" d="M885.2,167.1c-4.1-4.4-6.2-10.6-6.2-18.8v-33.3h6.2v33c0,6.8,1.2,11.8,4.4,15,2.9,3.2,7.4,5,13.2,5s10.3-1.8,13.2-5,4.4-8.2,4.7-15v-33h6.2v33.3c0,8.2-2.4,14.4-6.5,18.8s-10,6.5-17.4,6.2-13.2-2.1-17.4-6.5h-.6v.3Z"/>
    <path class="st0" d="M954.6,120.7h-20.3v-5.3h46.8v5.6h-20.3v52.4h-6.2v-52.7Z"/>
    <path class="st0" d="M1030,168.6v5.3h-40.9v-58h40v5.3h-33.5v20.3h30v5.3h-30v21.5h34.7-.3v.3Z"/>
    <path class="st0" d="M1046.2,172.4c-3.8-1.5-7.1-3.2-9.1-5.6l2.4-4.7c2.1,2.1,5,3.8,8.2,5,3.5,1.2,7.1,2.1,10.9,2.1s9.1-.9,11.8-2.9c2.6-1.8,3.8-4.4,3.8-7.4s-.6-4.1-2.1-5.6-2.9-2.6-5.3-3.2c-2.1-.6-5-1.8-8.5-2.6-4.4-1.2-7.7-2.1-10.6-3.2-2.6-1.2-5-2.6-6.8-4.7s-2.6-5-2.6-8.5.6-5.6,2.4-7.9c1.8-2.4,3.8-4.4,7.4-5.9,3.2-1.5,7.4-2.1,11.8-2.1s6.5.6,9.7,1.5c3.2.9,5.9,2.1,8.2,3.8l-2.1,5c-2.4-1.8-5-2.9-7.7-3.5-2.6-.9-5.3-1.2-8.2-1.2-5,0-8.8.9-11.5,2.9s-3.8,4.4-3.8,7.7.6,4.1,2.1,5.6,3.2,2.6,5.3,3.2c2.1.6,5,1.8,8.5,2.6,4.4,1.2,7.7,2.1,10.3,2.9,2.6,1.2,5,2.6,6.8,4.7s2.6,5,2.6,8.5-.9,5.6-2.4,7.9c-1.8,2.4-3.8,4.4-7.4,5.6-3.2,1.5-7.4,2.1-12.1,2.1s-8.5-.6-12.4-2.1v.6-.6h.3Z"/>
  </g>
  <g>
    <path class="st7" d="M532.9,207.8c2.4,2.1,3.5,4.7,3.5,8.2s-1.2,6.2-3.5,8.2-5.6,2.9-9.7,2.9h-8.8v10.3h-3.5v-32.7h12.4c4.1,0,7.4,1.2,9.7,2.9h0ZM530.6,221.9c1.8-1.5,2.6-3.5,2.6-5.9s-.9-4.7-2.6-6.2c-1.8-1.5-4.1-2.1-7.4-2.1h-8.5v16.2h8.5c3.2,0,5.9-.6,7.4-2.1Z"/>
    <path class="st7" d="M564.4,226.3h-20.6c0,2.6,1.2,4.4,2.9,6.2s3.8,2.4,6.8,2.4,2.9,0,4.1-.6,2.4-1.2,3.2-2.4l1.8,2.1c-1.2,1.2-2.6,2.4-4.1,2.9s-3.5,1.2-5.3,1.2-4.7-.6-6.8-1.8-3.5-2.6-4.4-4.4-1.8-3.8-1.8-6.5.6-4.4,1.8-6.5c1.2-1.8,2.6-3.5,4.4-4.4,1.8-1.2,3.8-1.8,6.2-1.8s4.4.6,6.2,1.8,3.2,2.6,4.1,4.4c1.2,1.8,1.5,3.8,1.5,6.5v1.2h.3-.3v-.3ZM546.8,217.8c-1.8,1.5-2.6,3.5-2.6,5.9h17.4c0-2.4-1.2-4.4-2.6-5.9s-3.5-2.4-5.9-2.4-4.4.6-5.9,2.1h-.3v.3Z"/>
    <path class="st7" d="M592.7,226.3h-20.6c0,2.6,1.2,4.4,2.9,6.2s3.8,2.4,6.8,2.4,2.9,0,4.1-.6,2.4-1.2,3.2-2.4l1.8,2.1c-1.2,1.2-2.6,2.4-4.1,2.9s-3.5,1.2-5.3,1.2-4.7-.6-6.8-1.8-3.5-2.6-4.4-4.4-1.8-3.8-1.8-6.5.6-4.4,1.8-6.5c1.2-1.8,2.6-3.5,4.4-4.4,1.8-1.2,3.8-1.8,6.2-1.8s4.4.6,6.2,1.8,3.2,2.6,4.1,4.4c1.2,1.8,1.5,3.8,1.5,6.5v1.2h.3-.3v-.3ZM575,218.1c-1.8,1.5-2.6,3.5-2.6,5.9h17.4c0-2.4-1.2-4.4-2.6-5.9s-3.5-2.4-5.9-2.4-4.4.6-5.9,2.1h-.3v.3Z"/>
    <path class="st7" d="M619.2,215.7c1.8,1.8,2.6,4.4,2.6,7.7v14.1h-3.5v-13.8c0-2.6-.6-4.4-1.8-5.9s-2.9-2.1-5.3-2.1-4.7.6-6.2,2.4c-1.8,1.8-2.4,3.8-2.4,6.5v12.7h-3.5v-24.4h3.2v4.4c.9-1.5,2.1-2.6,3.8-3.5,1.8-.9,3.5-1.2,5.6-1.2,2.9,0,5.6.9,7.4,2.6h0v.6h0Z"/>
    <path class="st7" d="M651.2,213.4l-12.4,27.4c-1.2,2.4-2.1,3.8-3.5,5-1.2.9-2.9,1.5-4.7,1.5s-2.4,0-3.2-.6c-1.2,0-2.1-.9-2.6-1.8l1.8-2.6c1.2,1.2,2.6,1.8,4.4,1.8s2.1,0,2.9-.9,1.8-1.8,2.1-3.2l1.2-2.4-10.9-24.4h3.5l9.1,20.9,9.4-20.6h3.2s-.3,0-.3,0Z"/>
    <path class="st7" d="M671,215.7c1.8,1.8,2.6,3.8,2.6,7.1v15h-3.2v-3.8c-.6,1.2-1.8,2.4-3.2,2.9s-3.2,1.2-5.3,1.2-5-.6-6.5-2.1c-1.8-1.2-2.4-2.9-2.4-5.3s.6-3.8,2.4-5c1.5-1.2,3.8-2.1,7.4-1.8h7.7v-1.5c0-2.1-.6-3.8-1.8-5s-2.9-1.8-5.3-1.8-2.9,0-4.4.6-2.6,1.2-3.5,2.1l-1.5-2.6c1.2-1.2,2.6-1.8,4.4-2.4s3.5-.9,5.6-.9c3.2,0,5.6.9,7.4,2.6h0v.6h-.3ZM667.1,234.2c1.2-.9,2.4-2.1,2.9-3.5v-3.8h-7.7c-4.1,0-6.2,1.5-6.2,4.4s.6,2.6,1.8,3.5,2.6,1.2,4.4,1.2,3.5,0,5-1.2h0v-.6h-.3Z"/>
    <path class="st7" d="M684.5,234c.6.6.6,1.2.6,1.8v1.2s-.3.9-.6,1.5l-2.1,6.5h-2.1l1.8-6.8c-.6,0-.9,0-1.2-.9s-.6-.9-.6-1.5,0-1.2.6-1.8,1.2-.6,1.8-.6,1.2,0,1.8.6h0Z"/>
    <path class="st7" d="M730.7,224.2c1.2,1.5,1.8,3.2,1.8,5.3s-1.2,5-2.9,6.5c-2.1,1.5-5,2.1-9.1,2.1h-15v-32.7h14.1c3.5,0,6.5.9,8.5,2.4s2.9,3.5,2.9,6.2-.6,3.2-1.2,4.4c-.9,1.2-2.1,2.1-3.5,2.9,2.1.6,3.8,1.5,5,2.6h-.6v.3ZM726.6,234c1.5-.9,2.1-2.6,2.4-4.7,0-4.1-2.9-6.2-8.8-6.2h-11.5v12.4h11.5c2.9,0,5,0,6.8-1.5h-.3ZM708.6,208.3v11.8h10.3c2.6,0,4.7-.6,6.2-1.5,1.5-1.2,2.1-2.6,2.1-4.4s-.6-3.5-2.1-4.4c-1.5-1.2-3.5-1.5-6.2-1.8h-10.6.3v.3Z"/>
    <path class="st7" d="M761,227.2h-20.6c0,2.6,1.2,4.4,2.9,6.2s3.8,2.4,6.8,2.4,2.9,0,4.1-.6c1.2-.6,2.4-1.2,3.2-2.4l1.8,2.1c-1.2,1.2-2.6,2.4-4.1,2.9s-3.5,1.2-5.3,1.2-4.7-.6-6.8-1.8-3.5-2.6-4.4-4.4-1.8-3.8-1.8-6.5.6-4.4,1.8-6.5c1.2-1.8,2.6-3.5,4.4-4.4,1.8-1.2,3.8-1.8,6.2-1.8s4.4.6,6.2,1.8,3.2,2.6,4.1,4.4,1.5,3.8,1.5,6.5v1.2h.3-.3v-.3ZM743.3,218.6c-1.8,1.5-2.6,3.5-2.6,5.9h17.4c0-2.4-1.2-4.4-2.6-5.9s-3.5-2.4-5.9-2.4-4.4.6-5.9,2.1h-.3v.3Z"/>
    <path class="st7" d="M787.5,216.6c1.8,1.8,2.6,4.4,2.6,7.7v14.1h-3.5v-13.8c0-2.6-.6-4.4-1.8-5.9s-2.9-2.1-5.3-2.1-4.7.6-6.2,2.4-2.4,3.8-2.4,6.5v12.7h-3.5v-24.4h3.2v4.4c.9-1.5,2.1-2.6,3.8-3.5,1.8-.9,3.5-1.2,5.6-1.2,2.9,0,5.6.9,7.4,2.6h0v.6h0Z"/>
    <path class="st7" d="M821.9,214.2v21.5c0,4.1-1.2,7.4-3.2,9.1-2.1,2.1-5,2.9-9.1,2.9s-4.4,0-6.5-1.2-3.5-1.8-5-2.9l1.8-2.6c1.2,1.2,2.6,2.1,4.4,2.6,1.8.6,3.5.9,5.3.9,2.9,0,5.3-.6,6.8-2.1s2.1-3.5,2.1-6.8v-2.9c-1.2,1.8-2.4,2.6-3.8,3.5-1.8.6-3.5,1.2-5.6,1.2s-4.4-.6-6.2-1.8-3.5-2.6-4.4-4.4c-1.2-1.8-1.8-3.8-1.8-6.2s.6-4.4,1.8-6.2,2.6-3.2,4.4-4.1,3.8-1.5,6.2-1.5,3.8,0,5.6,1.2,2.9,2.1,3.8,3.5v-4.7h3.2v.9h.3ZM814.3,233.7c1.5-.6,2.6-1.8,3.5-3.2.6-1.5,1.2-2.9,1.2-4.7s-.3-3.2-1.2-4.7-1.8-2.4-3.2-3.2c-1.5-.6-2.9-1.2-5-1.2s-3.5,0-5,1.2-2.6,1.8-3.2,2.9c-.6,1.5-1.2,2.9-1.2,4.7s.3,3.2,1.2,4.7,1.8,2.6,3.2,3.2,2.9,1.2,4.7,1.2,3.5,0,5-1.2h0v.3Z"/>
    <path class="st7" d="M847.2,216.6c1.8,1.8,2.6,3.8,2.6,7.1v15h-3.2v-3.8c-.6,1.2-1.8,2.4-3.2,2.9s-3.2,1.2-5.3,1.2-5-.6-6.5-2.1c-1.8-1.2-2.4-2.9-2.4-5.3s.6-3.8,2.4-5c1.5-1.2,3.8-1.8,7.4-1.8h7.7v-1.5c0-2.1-.6-3.8-1.8-5-1.2-1.2-2.9-1.8-5.3-1.8s-2.9,0-4.4.6-2.6,1.2-3.5,2.1l-1.5-2.6c1.2-1.2,2.6-1.8,4.4-2.4s3.5-.9,5.6-.9c3.2,0,5.6.9,7.4,2.6h0v.6h-.3ZM843.4,235.1c1.2-.9,2.4-2.1,2.9-3.5v-3.8h-7.7c-4.1,0-6.2,1.5-6.2,4.4s.6,2.6,1.8,3.5,2.6,1.2,4.4,1.2,3.5,0,5-1.2h0v-.6h-.3Z"/>
    <path class="st7" d="M859,204.2h3.2v34.7h-3.2v-34.7Z"/>
    <path class="st7" d="M893.4,214.5v24.4h-3.2v-4.4c-.9,1.5-2.1,2.6-3.5,3.5-1.5.9-3.2,1.2-5.3,1.2-3.2,0-5.9-.9-7.7-2.6s-2.6-4.4-2.6-7.9v-14.1h3.5v13.8c0,2.6.6,4.4,1.8,5.9,1.2,1.2,2.9,2.1,5.3,2.1s4.7-.6,6.2-2.4c1.5-1.8,2.4-3.8,2.4-6.5v-12.7h3.5-.3v-.3Z"/>
    <path class="st7" d="M909.3,215.7c1.8-.9,3.5-1.2,5.9-1.2v3.2h-.6c-2.6,0-4.7.6-6.2,2.4-1.5,1.8-2.1,3.8-2.1,6.8v12.4h-3.5v-24.4h3.2v5c.6-1.8,2.1-2.9,3.5-3.8h0l-.3-.3Z"/>
    <path class="st7" d="M943.5,214.8v24.4h-3.2v-4.4c-.9,1.5-2.1,2.6-3.5,3.5s-3.2,1.2-5.3,1.2c-3.2,0-5.9-.9-7.7-2.6s-2.6-4.4-2.6-7.9v-14.1h3.5v13.8c0,2.6.6,4.4,1.8,5.9,1.2,1.2,2.9,2.1,5.3,2.1s4.7-.6,6.2-2.4c1.5-1.8,2.4-3.8,2.4-6.5v-12.7h3.5-.3v-.3Z"/>
  </g>
  <path class="st5" d="M341.7,2.4c3.2,1.8,5.9,4.4,7.7,7.7,1.8,3.2,2.9,6.8,2.9,10.9s-.9,7.7-2.9,10.9-4.4,5.9-7.7,7.9-7.1,2.9-10.9,2.9-7.7-.9-10.9-2.9-5.9-4.4-7.7-7.7c-2.1-3.2-2.9-6.8-2.9-10.9s.9-7.7,2.9-10.9,4.4-5.9,7.7-7.7,7.1-2.9,10.9-2.9,7.7.9,10.9,2.9v-.6h0v.3ZM340.2,37.4c2.9-1.8,5-3.8,6.8-6.8,1.8-2.9,2.6-6.2,2.6-9.4s-.6-6.8-2.4-9.4c-1.8-2.9-3.8-5-6.8-6.8-2.9-1.8-5.9-2.6-9.4-2.6s-6.8.9-9.4,2.6-5,3.8-6.8,6.8c-1.8,2.9-2.6,6.2-2.6,9.4s.9,6.8,2.6,9.4,3.8,5.3,6.8,6.8c2.9,1.8,5.9,2.6,9.4,2.6s6.8-.9,9.4-2.6h-.3ZM340.5,21.8c-.9,1.2-2.1,2.1-3.8,2.9l5.6,8.5h-4.1l-5-7.7h-6.8v7.7h-4.1V8.8h9.7c2.9,0,5.3.6,7.4,2.4,1.8,1.5,2.6,3.5,2.6,6.2s-.6,3.5-1.2,4.7h0l-.3-.3ZM336.1,20.6c1.2-.9,1.8-2.1,1.8-3.5s-.6-2.6-1.8-3.5-2.6-1.2-4.4-1.2h-5.3v9.7h5.3c2.1,0,3.5,0,4.4-1.2h0v-.3Z"/>
  <polygon class="st3" points="168.6 110.4 188.3 68.3 208.3 110.9 232.5 78.3 188.9 2.6 145.1 78.3 168.6 110.4"/>
  <polygon class="st3" points="210.4 236.9 324 236.6 289 176 210.4 236.9"/>
  <polygon class="st1" points="324 236.6 210.4 236.9 189.2 253.4 168 237.2 53.3 237.5 5 319.9 372 319.9 324 236.6"/>
  <polygon class="st6" points="307.2 161.6 342.2 67.7 286.9 110.4 291 68 247.8 110.1 240.1 68.3 208.3 110.9 188.3 68.3 168.6 110.4 137.4 68.3 129.5 110.4 86.2 68 90.3 110.1 35.3 67.7 70.3 161.6 70.6 161.6 189.2 253.4 307.2 161.6"/>
  <g>
    <polygon class="st8" points="188.3 73 170.1 112.1 184.5 131.8 188.9 122.4 193 131.2 206.9 113 188.3 73"/>
    <polygon class="st8" points="239 73.3 194.2 133.3 202.8 151.8 224.8 122.4 226.3 131 246 111.8 239 73.3"/>
    <polygon class="st8" points="260.1 131 284.9 111.8 288.4 73.3 226.9 133.6 230.1 152.1 261 122.1 260.1 131"/>
    <polygon class="st8" points="259.8 133.6 258.1 152.4 297.5 121.8 274.3 184.5 305.5 160.4 338.1 73.6 259.8 133.6"/>
    <polygon class="st8" points="117.4 133.3 39.7 73.6 72.1 160.4 103.9 185.1 80.3 121.8 119.5 151.8 117.4 133.3"/>
    <polygon class="st8" points="131.5 111.8 151 131 152.4 122.4 175.1 152.4 183.6 133.9 138.6 73.3 131.5 111.8"/>
    <polygon class="st8" points="92.4 111.5 117.4 130.7 116.5 122.1 147.1 151.8 150.7 133.3 88.9 73.3 92.4 111.5"/>
  </g>
  <g>
    <polygon class="st2" points="257.8 155.1 254.8 188.6 254.6 188.9 200.1 241.9 271 187.5 293.4 127.7 257.8 155.1"/>
    <polygon class="st2" points="119.5 154.5 84.8 127.7 107.1 187.5 175.1 239.8 122.7 188.6 119.5 154.5"/>
    <polygon class="st2" points="146.6 154.2 119.2 127.4 124.8 187.7 179.8 241.3 140.4 188.3 146.6 154.2"/>
    <polygon class="st2" points="173.9 154.8 153.6 127.1 142.4 187.7 184.8 244.8 158.3 188.3 173.9 154.8"/>
    <polygon class="st2" points="258.4 127.4 230.7 154.8 237.2 188.3 236.6 188.6 196.9 242.5 252.8 187.7 258.4 127.4"/>
    <polygon class="st2" points="223.7 127.1 203.6 154.2 219.5 188.3 194.2 242.2 234.8 187.7 223.7 127.1"/>
    <polygon class="st2" points="188.9 127.1 160.7 188.3 188.9 249.3 217.2 188.3 188.9 127.1"/>
  </g>
  <g>
    <path class="st6" d="M134.8,293.7h-25l-5.3,11.8h-6.8l21.2-47.1h6.8l21.5,47.1h-7.1l-5.3-11.8h0ZM132.4,288.4l-10-23-10,23h20.3-.3Z"/>
    <path class="st6" d="M153.9,258.4h6.8v47.1h-6.8v-47.1Z"/>
    <path class="st6" d="M218.4,305.5v-34.1l-17.1,28.5h-2.9l-17.1-28.3v34.1h-6.5v-47.1h5.6l19.7,33.3,19.4-33.3h5.6v47.1h-6.8v-.3Z"/>
    <path class="st6" d="M242.5,304.3c-3.2-1.2-5.9-2.6-7.7-4.4l2.6-5.3c1.8,1.8,4.1,2.9,6.8,3.8,2.9,1.2,5.9,1.5,8.5,1.5s6.8-.6,8.5-2.1c2.1-1.2,2.9-2.9,2.9-5.3s-.6-2.9-1.8-3.8-2.4-1.8-3.8-2.4-3.8-1.2-6.5-1.8c-3.5-.9-6.2-1.8-8.5-2.6-2.1-.9-3.8-2.1-5.6-3.8-1.8-1.8-2.4-4.1-2.4-7.4s.6-4.7,2.1-6.8c1.2-2.1,3.2-3.5,5.9-5s5.9-1.8,10-1.8,5.6,0,8.2,1.2,5,1.8,6.8,2.9l-2.1,5.3c-2.1-1.2-4.1-2.1-6.2-2.9s-4.4-.9-6.8-.9c-3.8,0-6.8.6-8.5,2.1s-2.9,3.2-2.9,5.3.6,2.9,1.8,3.8,2.4,1.8,3.8,2.4,3.8,1.2,6.5,1.8c3.5.9,6.2,1.8,8.5,2.6s3.8,2.1,5.6,3.8c1.8,1.8,2.4,4.1,2.4,7.1s-.6,4.7-2.1,6.8c-1.2,2.1-3.5,3.5-6.2,5s-6.2,1.8-10,1.8-7.1-.6-10.3-1.8h0v.9h.3Z"/>
  </g>
  <g>
    <path class="st4" d="M7.4,338.4l-1.5,7.4h11.8l-.6,2.9H5.3l-1.5,7.7h13.8l-.6,2.9H0l4.7-23.5h16.5l-.6,2.9H7.4v-.3Z"/>
    <path class="st4" d="M51.8,335.8l-4.7,23.5h-3.2l3.5-17.1-10.9,14.1h-1.8l-5.9-14.4-3.5,17.4h-3.2l4.7-23.5h2.6l6.5,16.5,12.7-16.5h3.2Z"/>
    <path class="st4" d="M73.9,337.5c1.5,1.2,2.4,2.9,2.4,5s-.3,3.5-1.2,5-2.1,2.6-3.8,3.2c-1.8.6-3.5,1.2-5.9,1.2h-6.2l-1.5,7.1h-3.5l4.7-23.5h8.5c2.6,0,5,.6,6.2,1.8h.3v.3ZM70.9,347.5c1.2-1.2,2.1-2.6,2.1-4.7s-.6-2.6-1.5-3.2-2.4-1.2-4.1-1.2h-5.6l-2.1,10.6h5.9c2.4,0,4.4-.6,5.6-1.8h-.3v.3Z"/>
    <path class="st4" d="M83.6,358.1c-1.8-.9-2.9-2.1-3.8-3.5s-1.2-3.2-1.2-5.3.6-5,1.8-7.4,2.9-3.8,5-5c2.1-1.2,4.7-1.8,7.4-1.8s4.4,0,5.9,1.2,2.9,2.1,3.8,3.5,1.2,3.2,1.2,5.3-.6,5-1.8,7.4-2.9,3.8-5,5c-2.1,1.2-4.7,1.8-7.4,1.8s-4.4,0-5.9-1.2ZM95.6,354.9c1.8-.9,2.9-2.4,3.8-3.8s1.2-3.5,1.2-5.3-.6-3.8-2.1-5.3c-1.5-1.2-3.2-2.1-5.9-2.1s-3.8.6-5.6,1.5-2.9,2.4-3.8,3.8-1.2,3.5-1.2,5.3.6,3.8,2.1,5.3,3.5,2.1,5.9,2.1,3.8-.6,5.6-1.5h0Z"/>
    <path class="st4" d="M143.6,335.8l-12.4,23.5h-3.5l-2.6-18.5-10.3,18.5h-3.5l-2.9-23.5h3.2l2.6,19.1,10.6-19.1h2.9l2.6,19.1,10.3-19.1h3.5s-.6,0-.6,0Z"/>
    <path class="st4" d="M150.4,338.4l-1.5,7.4h11.8l-.6,2.9h-11.8l-1.5,7.7h13.8l-.6,2.9h-17.1l4.7-23.5h16.5l-.6,2.9h-13.5.3v-.3Z"/>
    <path class="st4" d="M185.4,348.4c-1.2,1.8-2.9,2.6-5.3,3.2l4.4,7.7h-3.5l-4.1-7.4h-6.8l-1.5,7.4h-3.5l4.7-23.5h8.5c2.6,0,5,.6,6.2,1.8s2.4,2.9,2.4,5-.6,4.1-1.8,5.9c0,0,.3,0,.3,0ZM182.2,347.5c1.2-1.2,2.1-2.6,2.1-4.7s-.6-2.6-1.5-3.2-2.4-1.2-4.1-1.2h-5.6l-2.1,10.6h5.9c2.4,0,4.4-.6,5.6-1.8h0l-.3.3Z"/>
    <path class="st4" d="M194.2,335.8h3.5l-4.7,23.5h-3.5l4.7-23.5Z"/>
    <path class="st4" d="M224.8,335.8l-4.7,23.5h-2.6l-10.6-18-3.5,18h-3.5l4.7-23.5h2.6l10.6,18,3.5-18h3.5Z"/>
    <path class="st4" d="M245.7,347.2h3.2l-1.8,9.1c-1.2.9-2.4,1.8-3.8,2.1-1.5.6-2.9.6-4.7.6s-4.4,0-5.9-1.2c-1.8-.9-2.9-2.1-3.8-3.5s-1.5-3.2-1.5-5.3.6-5,1.8-7.4,2.9-3.8,5-5,4.7-1.8,7.7-1.8,3.8,0,5.3.9c1.5.6,2.6,1.5,3.5,2.6l-2.4,2.1c-.6-.9-1.8-1.8-2.9-2.1s-2.4-.6-3.8-.6-4.1.6-5.9,1.5-2.9,2.4-3.8,3.8-1.5,3.5-1.5,5.6.6,3.8,2.1,5.3,3.5,2.1,6.2,2.1,3.8-.6,5.3-1.5l1.5-7.7h.3v.3Z"/>
    <path class="st4" d="M291.6,335.8l-4.7,23.5h-3.2l3.5-17.1-10.9,14.1h-1.8l-5.9-14.4-3.5,17.4h-3.2l4.7-23.5h2.6l6.5,16.5,12.7-16.5s3.2,0,3.2,0Z"/>
    <path class="st4" d="M298.4,335.8h3.5l-4.7,23.5h-3.5l4.7-23.5Z"/>
    <path class="st4" d="M329,335.8l-4.7,23.5h-2.6l-10.6-18-3.5,18h-3.5l4.7-23.5h2.6l10.6,18,3.5-18h3.5Z"/>
    <path class="st4" d="M336.1,335.8h9.1c2.4,0,4.4,0,5.9,1.2s2.9,2.1,3.8,3.5,1.2,2.9,1.2,5-.6,5-1.8,7.4-2.9,3.8-5,5c-2.1,1.2-4.7,1.8-7.7,1.8h-10.6l4.7-23.5h0l.3-.3ZM342,356.1c2.1,0,4.1-.6,5.9-1.5s2.9-2.1,3.8-3.8c.9-1.8,1.5-3.5,1.5-5.6s-.6-3.8-2.1-5-3.5-1.8-6.2-1.8h-6.2l-3.5,17.7h6.8,0Z"/>
    <path class="st4" d="M361.4,358.4c-1.8-.6-2.9-1.2-3.8-2.1l1.5-2.6c.9.9,2.1,1.5,3.5,2.1s2.6.6,4.1.6,3.5,0,4.7-1.2c1.2-.6,1.8-1.8,1.8-2.9s0-1.2-.6-1.8-1.2-.6-1.8-1.2c-.6,0-1.8-.6-2.6-.9-1.5,0-2.6-.9-3.5-1.2s-1.8-1.2-2.4-1.8c-.6-.6-.9-1.8-.9-2.9s0-2.6,1.2-3.8,2.1-2.1,3.5-2.6c1.5-.6,2.9-.9,5-.9s2.9,0,4.1.6c1.2,0,2.6.9,3.5,1.5l-1.2,2.6c-.9-.6-1.8-1.2-2.9-1.5s-2.1-.6-3.5-.6-3.5,0-4.4,1.2c-1.2.6-1.8,1.8-1.8,2.9s0,1.2.6,1.8,1.2.9,1.8,1.2c.6,0,1.8.6,2.6.9,1.5,0,2.6.9,3.5,1.2s1.8.9,2.4,1.8c.6.6.9,1.8.9,2.9s0,2.6-1.2,3.8-2.1,2.1-3.5,2.6-3.2.9-5.3.9-3.5,0-5-.6h-.3Z"/>
  </g>
</svg>