<svg width="42" height="37" viewBox="0 0 42 37" fill="none" xmlns="http://www.w3.org/2000/svg">
<path d="M40.5 0H27C25.8357 0 24.6873 0.278618 23.6459 0.81379C22.6045 1.34896 21.6986 2.12599 21 3.08333C20.3014 2.12599 19.3955 1.34896 18.3541 0.81379C17.3127 0.278618 16.1643 0 15 0H1.5C1.10218 0 0.720644 0.162425 0.43934 0.451544C0.158035 0.740663 0 1.13279 0 1.54167V29.2917C0 29.7005 0.158035 30.0927 0.43934 30.3818C0.720644 30.6709 1.10218 30.8333 1.5 30.8333H15C16.1935 30.8333 17.3381 31.3206 18.182 32.188C19.0259 33.0553 19.5 34.2317 19.5 35.4583C19.5 35.8672 19.658 36.2593 19.9393 36.5485C20.2206 36.8376 20.6022 37 21 37C21.3978 37 21.7794 36.8376 22.0607 36.5485C22.342 36.2593 22.5 35.8672 22.5 35.4583C22.5 34.2317 22.9741 33.0553 23.818 32.188C24.6619 31.3206 25.8065 30.8333 27 30.8333H40.5C40.8978 30.8333 41.2794 30.6709 41.5607 30.3818C41.842 30.0927 42 29.7005 42 29.2917V1.54167C42 1.13279 41.842 0.740663 41.5607 0.451544C41.2794 0.162425 40.8978 0 40.5 0ZM15 27.75H3V3.08333H15C16.1935 3.08333 17.3381 3.57061 18.182 4.43796C19.0259 5.30532 19.5 6.48171 19.5 7.70833V29.2917C18.203 28.2886 16.6232 27.7473 15 27.75ZM39 27.75H27C25.3768 27.7473 23.797 28.2886 22.5 29.2917V7.70833C22.5 6.48171 22.9741 5.30532 23.818 4.43796C24.6619 3.57061 25.8065 3.08333 27 3.08333H39V27.75ZM27 7.70833H34.5C34.8978 7.70833 35.2794 7.87076 35.5607 8.15988C35.842 8.449 36 8.84112 36 9.25C36 9.65888 35.842 10.051 35.5607 10.3401C35.2794 10.6292 34.8978 10.7917 34.5 10.7917H27C26.6022 10.7917 26.2206 10.6292 25.9393 10.3401C25.658 10.051 25.5 9.65888 25.5 9.25C25.5 8.84112 25.658 8.449 25.9393 8.15988C26.2206 7.87076 26.6022 7.70833 27 7.70833ZM36 15.4167C36 15.8255 35.842 16.2177 35.5607 16.5068C35.2794 16.7959 34.8978 16.9583 34.5 16.9583H27C26.6022 16.9583 26.2206 16.7959 25.9393 16.5068C25.658 16.2177 25.5 15.8255 25.5 15.4167C25.5 15.0078 25.658 14.6157 25.9393 14.3265C26.2206 14.0374 26.6022 13.875 27 13.875H34.5C34.8978 13.875 35.2794 14.0374 35.5607 14.3265C35.842 14.6157 36 15.0078 36 15.4167ZM36 21.5833C36 21.9922 35.842 22.3843 35.5607 22.6735C35.2794 22.9626 34.8978 23.125 34.5 23.125H27C26.6022 23.125 26.2206 22.9626 25.9393 22.6735C25.658 22.3843 25.5 21.9922 25.5 21.5833C25.5 21.1745 25.658 20.7823 25.9393 20.4932C26.2206 20.2041 26.6022 20.0417 27 20.0417H34.5C34.8978 20.0417 35.2794 20.2041 35.5607 20.4932C35.842 20.7823 36 21.1745 36 21.5833Z" fill="#F0A2B8"/>
</svg>
