<svg width="43" height="35" viewBox="0 0 43 35" fill="none" xmlns="http://www.w3.org/2000/svg">
<path d="M41.5667 32.0833H38.7V11.6667C39.0801 11.6667 39.4447 11.513 39.7135 11.2395C39.9823 10.966 40.1333 10.5951 40.1333 10.2083C40.1333 9.82156 39.9823 9.45063 39.7135 9.17714C39.4447 8.90365 39.0801 8.75 38.7 8.75H30.1V2.91667C30.4801 2.91667 30.8447 2.76302 31.1135 2.48953C31.3823 2.21604 31.5333 1.84511 31.5333 1.45833C31.5333 1.07156 31.3823 0.700627 31.1135 0.427136C30.8447 0.153646 30.4801 0 30.1 0H4.3C3.91986 0 3.55528 0.153646 3.28648 0.427136C3.01768 0.700627 2.86667 1.07156 2.86667 1.45833C2.86667 1.84511 3.01768 2.21604 3.28648 2.48953C3.55528 2.76302 3.91986 2.91667 4.3 2.91667V32.0833H1.43333C1.05319 32.0833 0.688616 32.237 0.419814 32.5105C0.151011 32.784 0 33.1549 0 33.5417C0 33.9284 0.151011 34.2994 0.419814 34.5729C0.688616 34.8464 1.05319 35 1.43333 35H41.5667C41.9468 35 42.3114 34.8464 42.5802 34.5729C42.849 34.2994 43 33.9284 43 33.5417C43 33.1549 42.849 32.784 42.5802 32.5105C42.3114 32.237 41.9468 32.0833 41.5667 32.0833ZM35.8333 11.6667V32.0833H30.1V11.6667H35.8333ZM7.16667 2.91667H27.2333V32.0833H22.9333V23.3333C22.9333 22.9466 22.7823 22.5756 22.5135 22.3021C22.2447 22.0286 21.8801 21.875 21.5 21.875H12.9C12.5199 21.875 12.1553 22.0286 11.8865 22.3021C11.6177 22.5756 11.4667 22.9466 11.4667 23.3333V32.0833H7.16667V2.91667ZM20.0667 32.0833H14.3333V24.7917H20.0667V32.0833ZM10.0333 8.75C10.0333 8.36323 10.1843 7.99229 10.4531 7.7188C10.7219 7.44531 11.0865 7.29167 11.4667 7.29167H14.3333C14.7135 7.29167 15.0781 7.44531 15.3469 7.7188C15.6157 7.99229 15.7667 8.36323 15.7667 8.75C15.7667 9.13677 15.6157 9.50771 15.3469 9.7812C15.0781 10.0547 14.7135 10.2083 14.3333 10.2083H11.4667C11.0865 10.2083 10.7219 10.0547 10.4531 9.7812C10.1843 9.50771 10.0333 9.13677 10.0333 8.75ZM18.6333 8.75C18.6333 8.36323 18.7843 7.99229 19.0531 7.7188C19.3219 7.44531 19.6865 7.29167 20.0667 7.29167H22.9333C23.3135 7.29167 23.6781 7.44531 23.9469 7.7188C24.2157 7.99229 24.3667 8.36323 24.3667 8.75C24.3667 9.13677 24.2157 9.50771 23.9469 9.7812C23.6781 10.0547 23.3135 10.2083 22.9333 10.2083H20.0667C19.6865 10.2083 19.3219 10.0547 19.0531 9.7812C18.7843 9.50771 18.6333 9.13677 18.6333 8.75ZM10.0333 16.0417C10.0333 15.6549 10.1843 15.284 10.4531 15.0105C10.7219 14.737 11.0865 14.5833 11.4667 14.5833H14.3333C14.7135 14.5833 15.0781 14.737 15.3469 15.0105C15.6157 15.284 15.7667 15.6549 15.7667 16.0417C15.7667 16.4284 15.6157 16.7994 15.3469 17.0729C15.0781 17.3464 14.7135 17.5 14.3333 17.5H11.4667C11.0865 17.5 10.7219 17.3464 10.4531 17.0729C10.1843 16.7994 10.0333 16.4284 10.0333 16.0417ZM18.6333 16.0417C18.6333 15.6549 18.7843 15.284 19.0531 15.0105C19.3219 14.737 19.6865 14.5833 20.0667 14.5833H22.9333C23.3135 14.5833 23.6781 14.737 23.9469 15.0105C24.2157 15.284 24.3667 15.6549 24.3667 16.0417C24.3667 16.4284 24.2157 16.7994 23.9469 17.0729C23.6781 17.3464 23.3135 17.5 22.9333 17.5H20.0667C19.6865 17.5 19.3219 17.3464 19.0531 17.0729C18.7843 16.7994 18.6333 16.4284 18.6333 16.0417Z" fill="#F0A2B8"/>
</svg>
