<svg width="44" height="44" viewBox="0 0 44 44" fill="none" xmlns="http://www.w3.org/2000/svg">
<path d="M35.75 5.5H31.625V4.125C31.625 3.76033 31.4801 3.41059 31.2223 3.15273C30.9644 2.89487 30.6147 2.75 30.25 2.75C29.8853 2.75 29.5356 2.89487 29.2777 3.15273C29.0199 3.41059 28.875 3.76033 28.875 4.125V5.5H15.125V4.125C15.125 3.76033 14.9801 3.41059 14.7223 3.15273C14.4644 2.89487 14.1147 2.75 13.75 2.75C13.3853 2.75 13.0356 2.89487 12.7777 3.15273C12.5199 3.41059 12.375 3.76033 12.375 4.125V5.5H8.25C7.52065 5.5 6.82118 5.78973 6.30546 6.30546C5.78973 6.82118 5.5 7.52065 5.5 8.25V35.75C5.5 36.4793 5.78973 37.1788 6.30546 37.6945C6.82118 38.2103 7.52065 38.5 8.25 38.5H35.75C36.4793 38.5 37.1788 38.2103 37.6945 37.6945C38.2103 37.1788 38.5 36.4793 38.5 35.75V8.25C38.5 7.52065 38.2103 6.82118 37.6945 6.30546C37.1788 5.78973 36.4793 5.5 35.75 5.5ZM12.375 8.25V9.625C12.375 9.98967 12.5199 10.3394 12.7777 10.5973C13.0356 10.8551 13.3853 11 13.75 11C14.1147 11 14.4644 10.8551 14.7223 10.5973C14.9801 10.3394 15.125 9.98967 15.125 9.625V8.25H28.875V9.625C28.875 9.98967 29.0199 10.3394 29.2777 10.5973C29.5356 10.8551 29.8853 11 30.25 11C30.6147 11 30.9644 10.8551 31.2223 10.5973C31.4801 10.3394 31.625 9.98967 31.625 9.625V8.25H35.75V13.75H8.25V8.25H12.375ZM35.75 35.75H8.25V16.5H35.75V35.75ZM24.0625 22.6875C24.0625 23.0954 23.9415 23.4942 23.7149 23.8334C23.4883 24.1725 23.1662 24.4369 22.7893 24.593C22.4124 24.7491 21.9977 24.79 21.5976 24.7104C21.1975 24.6308 20.83 24.4344 20.5416 24.1459C20.2531 23.8575 20.0567 23.49 19.9771 23.0899C19.8975 22.6898 19.9384 22.2751 20.0945 21.8982C20.2506 21.5213 20.515 21.1992 20.8541 20.9726C21.1933 20.746 21.5921 20.625 22 20.625C22.547 20.625 23.0716 20.8423 23.4584 21.2291C23.8452 21.6159 24.0625 22.1405 24.0625 22.6875ZM31.625 22.6875C31.625 23.0954 31.504 23.4942 31.2774 23.8334C31.0508 24.1725 30.7287 24.4369 30.3518 24.593C29.9749 24.7491 29.5602 24.79 29.1601 24.7104C28.76 24.6308 28.3925 24.4344 28.1041 24.1459C27.8156 23.8575 27.6192 23.49 27.5396 23.0899C27.46 22.6898 27.5009 22.2751 27.657 21.8982C27.8131 21.5213 28.0775 21.1992 28.4166 20.9726C28.7558 20.746 29.1546 20.625 29.5625 20.625C30.1095 20.625 30.6341 20.8423 31.0209 21.2291C31.4077 21.6159 31.625 22.1405 31.625 22.6875ZM16.5 29.5625C16.5 29.9704 16.379 30.3692 16.1524 30.7084C15.9258 31.0475 15.6037 31.3119 15.2268 31.468C14.8499 31.6241 14.4352 31.665 14.0351 31.5854C13.635 31.5058 13.2675 31.3094 12.9791 31.0209C12.6906 30.7325 12.4942 30.365 12.4146 29.9649C12.335 29.5648 12.3759 29.1501 12.532 28.7732C12.6881 28.3963 12.9525 28.0742 13.2916 27.8476C13.6308 27.621 14.0296 27.5 14.4375 27.5C14.9845 27.5 15.5091 27.7173 15.8959 28.1041C16.2827 28.4909 16.5 29.0155 16.5 29.5625ZM24.0625 29.5625C24.0625 29.9704 23.9415 30.3692 23.7149 30.7084C23.4883 31.0475 23.1662 31.3119 22.7893 31.468C22.4124 31.6241 21.9977 31.665 21.5976 31.5854C21.1975 31.5058 20.83 31.3094 20.5416 31.0209C20.2531 30.7325 20.0567 30.365 19.9771 29.9649C19.8975 29.5648 19.9384 29.1501 20.0945 28.7732C20.2506 28.3963 20.515 28.0742 20.8541 27.8476C21.1933 27.621 21.5921 27.5 22 27.5C22.547 27.5 23.0716 27.7173 23.4584 28.1041C23.8452 28.4909 24.0625 29.0155 24.0625 29.5625ZM31.625 29.5625C31.625 29.9704 31.504 30.3692 31.2774 30.7084C31.0508 31.0475 30.7287 31.3119 30.3518 31.468C29.9749 31.6241 29.5602 31.665 29.1601 31.5854C28.76 31.5058 28.3925 31.3094 28.1041 31.0209C27.8156 30.7325 27.6192 30.365 27.5396 29.9649C27.46 29.5648 27.5009 29.1501 27.657 28.7732C27.8131 28.3963 28.0775 28.0742 28.4166 27.8476C28.7558 27.621 29.1546 27.5 29.5625 27.5C30.1095 27.5 30.6341 27.7173 31.0209 28.1041C31.4077 28.4909 31.625 29.0155 31.625 29.5625Z" fill="#F0A2B8"/>
</svg>
