<svg width="58" height="52" viewBox="0 0 58 52" fill="none" xmlns="http://www.w3.org/2000/svg">
<g filter="url(#filter0_d_11_335)">
<path d="M53.1723 12.7559L29.7344 0.184383C29.5083 0.0633187 29.2561 0 29 0C28.7439 0 28.4917 0.0633187 28.2656 0.184383L4.82765 12.7559C4.57766 12.8899 4.36858 13.0897 4.2228 13.334C4.07701 13.5782 4 13.8578 4 14.1427C4 14.4276 4.07701 14.7071 4.2228 14.9514C4.36858 15.1957 4.57766 15.3955 4.82765 15.5295L10.2496 18.4386V27.9497C10.248 28.7216 10.5305 29.4668 11.0426 30.0417C13.6013 32.9076 19.3338 37.7142 29 37.7142C32.205 37.7409 35.3861 37.1571 38.3752 35.9935V42.4286C38.3752 42.8453 38.5398 43.245 38.8328 43.5397C39.1259 43.8344 39.5233 44 39.9377 44C40.3521 44 40.7496 43.8344 41.0426 43.5397C41.3356 43.245 41.5002 42.8453 41.5002 42.4286V34.4751C43.5378 33.2922 45.3791 31.7964 46.9574 30.0417C47.4695 29.4668 47.752 28.7216 47.7504 27.9497V18.4386L53.1723 15.5295C53.4223 15.3955 53.6314 15.1957 53.7772 14.9514C53.923 14.7071 54 14.4276 54 14.1427C54 13.8578 53.923 13.5782 53.7772 13.334C53.6314 13.0897 53.4223 12.8899 53.1723 12.7559ZM29 34.5714C20.5487 34.5714 15.5779 30.4188 13.3747 27.9497V20.1141L28.2656 28.101C28.4917 28.222 28.7439 28.2854 29 28.2854C29.2561 28.2854 29.5083 28.222 29.7344 28.101L38.3752 23.4672V32.5698C35.9142 33.7248 32.8126 34.5714 29 34.5714ZM44.6253 27.9419C43.6887 28.9872 42.6407 29.9258 41.5002 30.741V21.7897L44.6253 20.1141V27.9419ZM40.719 18.6488L40.676 18.6232L29.7383 12.7559C29.3734 12.5684 28.9498 12.5326 28.5589 12.6562C28.168 12.7798 27.841 13.0529 27.6484 13.4167C27.4558 13.7804 27.413 14.2057 27.5291 14.6009C27.6453 14.9961 27.9112 15.3295 28.2695 15.5295L37.3986 20.4284L29 24.9326L8.88242 14.1427L29 3.35279L49.1176 14.1427L40.719 18.6488Z" fill="#F0A2B8"/>
</g>
<defs>
<filter id="filter0_d_11_335" x="0" y="0" width="58" height="52" filterUnits="userSpaceOnUse" color-interpolation-filters="sRGB">
<feFlood flood-opacity="0" result="BackgroundImageFix"/>
<feColorMatrix in="SourceAlpha" type="matrix" values="0 0 0 0 0 0 0 0 0 0 0 0 0 0 0 0 0 0 127 0" result="hardAlpha"/>
<feOffset dy="4"/>
<feGaussianBlur stdDeviation="2"/>
<feComposite in2="hardAlpha" operator="out"/>
<feColorMatrix type="matrix" values="0 0 0 0 0 0 0 0 0 0 0 0 0 0 0 0 0 0 0.25 0"/>
<feBlend mode="normal" in2="BackgroundImageFix" result="effect1_dropShadow_11_335"/>
<feBlend mode="normal" in="SourceGraphic" in2="effect1_dropShadow_11_335" result="shape"/>
</filter>
</defs>
</svg>
