<svg width="47" height="43" viewBox="0 0 47 43" fill="none" xmlns="http://www.w3.org/2000/svg">
<g clip-path="url(#clip0_21_420)">
<path d="M15.397 40.997C12.9853 43.5967 9.00251 43.6784 6.49657 41.1605L0 34.637L4.36771 29.9282L15.397 40.997Z" fill="url(#paint0_linear_21_420)"/>
<path d="M45.9788 19.0557C44.1877 17.5515 42.1453 19.0557 42.1453 19.0557L35.6487 26.0371C35.7744 26.8546 35.9079 28.5468 35.0752 29.7403C34.5332 30.517 33.7005 30.942 32.6007 31.0156C31.8309 31.0728 30.6604 31.0974 29.4506 31.0974C27.1175 31.0974 24.6194 31.0238 24.4623 31.0156L24.4859 30.1981C24.5409 30.1981 30.3147 30.3698 32.5457 30.1981C33.4098 30.1409 34.0461 29.8303 34.4389 29.258C35.1773 28.2035 34.9495 26.5439 34.8396 25.9717C34.0776 24.4675 32.4672 24.2958 32.4672 24.2958L21.4065 24.2631C10.7072 20.7479 6.22164 29.6749 6.22164 29.6749L6.09595 30.051L15.1613 39.1497C16.7246 36.8198 19.2148 36.6073 19.2148 36.6073C19.2148 36.6073 27.0782 36.5746 31.2024 36.6073C35.3266 36.64 37.6047 34.073 37.6047 34.073C37.6047 34.073 45.7588 24.7782 46.6387 22.8816C47.5185 20.985 46.6387 19.7751 45.9866 19.0639L45.9788 19.0557Z" fill="url(#paint1_linear_21_420)"/>
<path d="M25.5386 11.1506V14.2244C25.6878 14.208 25.8449 14.1753 26.002 14.1426C26.7719 13.8892 27.1961 13.3333 27.1097 12.6385C27.0311 11.9763 26.4655 11.2896 25.5307 11.1506H25.5386Z" fill="url(#paint2_linear_21_420)"/>
<path d="M23.3468 7.44755C23.1505 7.71732 22.9855 8.18329 23.1505 8.60021C23.2997 8.96809 23.6768 9.27056 24.2502 9.49128V6.75269C23.9203 6.88348 23.6139 7.09603 23.3468 7.43938V7.44755Z" fill="url(#paint3_linear_21_420)"/>
<path d="M30.0476 1.43885C25.1143 -1.52047 18.8142 0.237137 15.9704 5.37098C13.1267 10.5048 14.8157 17.0611 19.749 20.0204C24.6823 22.9797 30.9825 21.2221 33.8262 16.0883C36.6699 10.9544 34.981 4.39816 30.0476 1.43885ZM26.3398 15.4343C26.057 15.4997 25.7978 15.5406 25.5385 15.5651V16.5869H24.2502V15.5487C22.3806 15.2953 21.4301 14.1018 21.3829 14.0364L22.3884 13.2025C22.3884 13.2025 23.0405 13.9873 24.2502 14.208V10.889C22.8048 10.4558 22.1999 9.72003 21.9642 9.12326C21.5872 8.17497 21.9093 7.21851 22.3335 6.62991C22.8834 5.9187 23.5511 5.54265 24.2502 5.37915V4.38181H25.5385V5.31375C26.6069 5.42003 27.6203 5.87782 28.2487 6.29474L27.5574 7.42288C27.4946 7.382 26.5755 6.79341 25.5307 6.64626V9.80995C27.1882 9.94893 28.233 11.2487 28.3823 12.4831C28.5394 13.8157 27.7381 14.9765 26.3241 15.4425L26.3398 15.4343Z" fill="url(#paint4_linear_21_420)"/>
</g>
<defs>
<linearGradient id="paint0_linear_21_420" x1="7.69848" y1="29.9282" x2="7.69848" y2="42.999" gradientUnits="userSpaceOnUse">
<stop stop-color="#9C59A3"/>
<stop offset="1" stop-color="#531675"/>
</linearGradient>
<linearGradient id="paint1_linear_21_420" x1="26.5525" y1="18.3872" x2="26.5525" y2="39.1497" gradientUnits="userSpaceOnUse">
<stop stop-color="#9C59A3"/>
<stop offset="1" stop-color="#531675"/>
</linearGradient>
<linearGradient id="paint2_linear_21_420" x1="26.3257" y1="11.1506" x2="26.3257" y2="14.2244" gradientUnits="userSpaceOnUse">
<stop stop-color="#9C59A3"/>
<stop offset="1" stop-color="#531675"/>
</linearGradient>
<linearGradient id="paint3_linear_21_420" x1="23.6666" y1="6.75269" x2="23.6666" y2="9.49128" gradientUnits="userSpaceOnUse">
<stop stop-color="#9C59A3"/>
<stop offset="1" stop-color="#531675"/>
</linearGradient>
<linearGradient id="paint4_linear_21_420" x1="24.8983" y1="0.00195312" x2="24.8983" y2="21.4573" gradientUnits="userSpaceOnUse">
<stop stop-color="#9C59A3"/>
<stop offset="1" stop-color="#531675"/>
</linearGradient>
<clipPath id="clip0_21_420">
<rect width="47" height="43" fill="white"/>
</clipPath>
</defs>
</svg>
