<svg width="38" height="39" viewBox="0 0 38 39" fill="none" xmlns="http://www.w3.org/2000/svg">
<path d="M0.584635 19.2029C0.738186 19.321 0.912916 19.407 1.09885 19.4559C1.28478 19.5048 1.47828 19.5156 1.66829 19.4877C1.8583 19.4599 2.0411 19.3939 2.20626 19.2936C2.37141 19.1932 2.51569 19.0605 2.63086 18.9029C3.51578 17.6922 4.66327 16.7095 5.98244 16.0327C7.30161 15.3558 8.75623 15.0035 10.2311 15.0035C11.706 15.0035 13.1606 15.3558 14.4798 16.0327C15.799 16.7095 16.9464 17.6922 17.8314 18.9029C18.0642 19.2208 18.4106 19.4308 18.7943 19.4867C19.1781 19.5426 19.5677 19.4399 19.8776 19.201C19.9881 19.1167 20.0859 19.0163 20.1681 18.9029C21.053 17.6922 22.2005 16.7095 23.5197 16.0327C24.8388 15.3558 26.2935 15.0035 27.7683 15.0035C29.2432 15.0035 30.6978 15.3558 32.017 16.0327C33.3362 16.7095 34.4837 17.6922 35.3686 18.9029C35.6014 19.2211 35.9479 19.4314 36.3318 19.4875C36.7157 19.5436 37.1056 19.4408 37.4157 19.2019C37.7258 18.963 37.9308 18.6075 37.9854 18.2135C38.0401 17.8196 37.94 17.4195 37.7071 17.1013C36.4134 15.3216 34.6882 13.9203 32.703 13.0369C33.7913 12.0173 34.5538 10.6839 34.8904 9.21169C35.227 7.73947 35.122 6.19723 34.5891 4.78737C34.0562 3.37751 33.1204 2.16589 31.9045 1.31153C30.6886 0.457178 29.2493 0 27.7756 0C26.302 0 24.8627 0.457178 23.6468 1.31153C22.4309 2.16589 21.4951 3.37751 20.9622 4.78737C20.4293 6.19723 20.3243 7.73947 20.6609 9.21169C20.9975 10.6839 21.76 12.0173 22.8483 13.0369C21.4149 13.6729 20.1128 14.5834 19.0116 15.7196C17.9104 14.5834 16.6083 13.6729 15.1749 13.0369C16.2632 12.0173 17.0257 10.6839 17.3623 9.21169C17.6989 7.73947 17.5939 6.19723 17.061 4.78737C16.5281 3.37751 15.5923 2.16589 14.3764 1.31153C13.1605 0.457178 11.7212 0 10.2476 0C8.77388 0 7.33464 0.457178 6.1187 1.31153C4.90277 2.16589 3.96697 3.37751 3.4341 4.78737C2.90123 6.19723 2.7962 7.73947 3.13279 9.21169C3.46938 10.6839 4.23187 12.0173 5.32018 13.0369C3.3263 13.9174 1.59258 15.3196 0.292318 17.1032C0.177155 17.2607 0.0933631 17.44 0.0457276 17.6308C-0.00190784 17.8216 -0.0124544 18.0202 0.0146898 18.2151C0.041834 18.4101 0.106138 18.5977 0.203929 18.7672C0.30172 18.9366 0.431084 19.0847 0.584635 19.2029ZM27.7702 3.00521C28.6374 3.00521 29.4851 3.2691 30.2062 3.76349C30.9273 4.25788 31.4893 4.96059 31.8212 5.78274C32.153 6.60488 32.2399 7.50955 32.0707 8.38234C31.9015 9.25513 31.4839 10.0568 30.8707 10.6861C30.2574 11.3153 29.4761 11.7438 28.6256 11.9175C27.775 12.0911 26.8934 12.002 26.0922 11.6614C25.291 11.3209 24.6062 10.7442 24.1244 10.0043C23.6426 9.26435 23.3854 8.39445 23.3854 7.50456C23.3854 6.31126 23.8474 5.16683 24.6697 4.32304C25.492 3.47925 26.6073 3.00521 27.7702 3.00521ZM10.2311 3.00521C11.0983 3.00521 11.9461 3.2691 12.6672 3.76349C13.3882 4.25788 13.9502 4.96059 14.2821 5.78274C14.614 6.60488 14.7008 7.50955 14.5316 8.38234C14.3624 9.25513 13.9448 10.0568 13.3316 10.6861C12.7184 11.3153 11.9371 11.7438 11.0865 11.9175C10.236 12.0911 9.35435 12.002 8.55314 11.6614C7.75193 11.3209 7.06712 10.7442 6.58532 10.0043C6.10351 9.26435 5.84635 8.39445 5.84635 7.50456C5.84635 6.31126 6.30831 5.16683 7.13062 4.32304C7.95292 3.47925 9.0682 3.00521 10.2311 3.00521ZM32.703 32.5341C33.7913 31.5145 34.5538 30.1811 34.8904 28.7089C35.227 27.2366 35.122 25.6944 34.5891 24.2845C34.0562 22.8747 33.1204 21.6631 31.9045 20.8087C30.6886 19.9544 29.2493 19.4972 27.7756 19.4972C26.302 19.4972 24.8627 19.9544 23.6468 20.8087C22.4309 21.6631 21.4951 22.8747 20.9622 24.2845C20.4293 25.6944 20.3243 27.2366 20.6609 28.7089C20.9975 30.1811 21.76 31.5145 22.8483 32.5341C21.4149 33.1701 20.1128 34.0806 19.0116 35.2168C17.9104 34.0806 16.6083 33.1701 15.1749 32.5341C16.2632 31.5145 17.0257 30.1811 17.3623 28.7089C17.6989 27.2366 17.5939 25.6944 17.061 24.2845C16.5281 22.8747 15.5923 21.6631 14.3764 20.8087C13.1605 19.9544 11.7212 19.4972 10.2476 19.4972C8.77388 19.4972 7.33464 19.9544 6.1187 20.8087C4.90277 21.6631 3.96697 22.8747 3.4341 24.2845C2.90123 25.6944 2.7962 27.2366 3.13279 28.7089C3.46938 30.1811 4.23187 31.5145 5.32018 32.5341C3.3263 33.4146 1.59258 34.8167 0.292318 36.6003C0.177155 36.7579 0.0933631 36.9372 0.0457276 37.128C-0.00190784 37.3188 -0.0124544 37.5173 0.0146898 37.7123C0.041834 37.9073 0.106138 38.0949 0.203929 38.2643C0.30172 38.4338 0.431084 38.5819 0.584635 38.7C0.738186 38.8182 0.912916 38.9042 1.09885 38.9531C1.28478 39.002 1.47828 39.0128 1.66829 38.9849C1.8583 38.9571 2.0411 38.8911 2.20626 38.7907C2.37141 38.6904 2.51569 38.5576 2.63086 38.4001C3.51578 37.1893 4.66327 36.2067 5.98244 35.5298C7.30161 34.853 8.75623 34.5006 10.2311 34.5006C11.706 34.5006 13.1606 34.853 14.4798 35.5298C15.799 36.2067 16.9464 37.1893 17.8314 38.4001C18.0642 38.718 18.4106 38.928 18.7943 38.9839C19.1781 39.0398 19.5677 38.937 19.8776 38.6982C19.9881 38.6139 20.0859 38.5134 20.1681 38.4001C21.053 37.1893 22.2005 36.2067 23.5197 35.5298C24.8388 34.853 26.2935 34.5006 27.7683 34.5006C29.2432 34.5006 30.6978 34.853 32.017 35.5298C33.3362 36.2067 34.4837 37.1893 35.3686 38.4001C35.6014 38.7183 35.9479 38.9286 36.3318 38.9846C36.7157 39.0407 37.1056 38.938 37.4157 38.6991C37.7258 38.4602 37.9308 38.1047 37.9854 37.7107C38.0401 37.3168 37.94 36.9167 37.7071 36.5985C36.4134 34.8187 34.6882 33.4175 32.703 32.5341ZM10.2311 22.5024C11.0983 22.5024 11.9461 22.7663 12.6672 23.2607C13.3882 23.7551 13.9502 24.4578 14.2821 25.2799C14.614 26.1021 14.7008 27.0067 14.5316 27.8795C14.3624 28.7523 13.9448 29.554 13.3316 30.1833C12.7184 30.8125 11.9371 31.241 11.0865 31.4146C10.236 31.5882 9.35435 31.4991 8.55314 31.1586C7.75193 30.818 7.06712 30.2414 6.58532 29.5014C6.10351 28.7615 5.84635 27.8916 5.84635 27.0017C5.84635 25.8084 6.30831 24.664 7.13062 23.8202C7.95292 22.9764 9.0682 22.5024 10.2311 22.5024ZM27.7702 22.5024C28.6374 22.5024 29.4851 22.7663 30.2062 23.2607C30.9273 23.7551 31.4893 24.4578 31.8212 25.2799C32.153 26.1021 32.2399 27.0067 32.0707 27.8795C31.9015 28.7523 31.4839 29.554 30.8707 30.1833C30.2574 30.8125 29.4761 31.241 28.6256 31.4146C27.775 31.5882 26.8934 31.4991 26.0922 31.1586C25.291 30.818 24.6062 30.2414 24.1244 29.5014C23.6426 28.7615 23.3854 27.8916 23.3854 27.0017C23.3854 25.8084 23.8474 24.664 24.6697 23.8202C25.492 22.9764 26.6073 22.5024 27.7702 22.5024Z" fill="#F0A2B8"/>
</svg>
