<svg width="40" height="48" viewBox="0 0 40 48" fill="none" xmlns="http://www.w3.org/2000/svg">
<path d="M39.5947 25.8829L29.952 27.9506L24.367 19.887C24.0085 20.1563 23.6623 20.4517 23.3344 20.7769C19.5334 24.5599 19.4855 30.742 23.2276 34.5845C26.9698 38.4271 33.0852 38.4755 36.8863 34.6925C39.2779 32.312 40.1828 28.982 39.5934 25.8817L39.5947 25.8829Z" fill="url(#paint0_linear_21_499)"/>
<path d="M30.6781 26.7043L39.1998 24.8849C38.7313 23.4188 37.8902 22.0428 36.6777 20.9024C36.2731 20.5215 35.8428 20.185 35.3939 19.887L30.6781 26.7043Z" fill="url(#paint1_linear_21_499)"/>
<path d="M25.5651 19.3195L30.3084 26.1359L34.0867 18.989C31.3626 17.8101 28.1963 17.9262 25.5663 19.3195H25.5651Z" fill="url(#paint2_linear_21_499)"/>
<path d="M13.5917 10.226C16.2766 10.1599 18.6175 8.1857 18.7447 5.27188C18.8656 2.49157 16.6743 0.121827 13.861 0.00452499C10.9828 -0.11652 8.67808 2.20955 8.53224 4.74776C8.36147 7.72773 10.6974 10.0763 13.5917 10.226Z" fill="url(#paint3_linear_21_499)"/>
<path d="M33.5186 14.3719C33.5186 13.0243 32.4115 11.9331 31.047 11.9331H8.16984C7.54056 11.9331 6.93467 12.1628 6.46671 12.5783L2.64174 15.982C2.18609 16.3732 1.74153 16.7803 1.2945 17.1801C0.798219 17.6236 0.421387 18.1704 0.150462 18.7744C-0.067509 19.2604 -0.0342591 19.7757 0.157851 20.2532C0.295777 20.5947 0.519906 20.907 0.732951 21.2132C1.27234 21.986 1.82404 22.7491 2.37697 23.5122C3.02473 24.4066 3.66756 25.3058 4.33502 26.1868C4.86825 26.8915 5.55172 27.3861 6.49134 27.2877C6.83861 27.2512 7.17604 27.0471 7.49622 26.8794C7.73267 26.7555 7.83981 26.8308 7.91369 27.0362C7.94694 27.1297 7.97157 27.2342 7.96788 27.3326C7.94079 28.1517 7.94079 28.9731 7.86936 29.7897C7.72035 31.4897 7.52208 33.186 7.36569 34.886C7.19574 36.7391 7.04673 38.5934 6.89403 40.4477C6.78197 41.7977 6.66867 43.1478 6.57508 44.499C6.54552 44.9316 6.46794 45.4031 6.59848 45.7956C7.0024 47.0071 7.74375 47.707 9.20798 47.724C10.3754 47.7374 11.3877 46.6243 11.4874 45.7081C11.6956 43.7881 11.9061 41.8694 12.0859 39.9471C12.2423 38.275 12.3569 36.5993 12.4874 34.9249C12.5404 34.2493 12.5785 33.5712 12.6352 32.8956C12.7201 31.8979 12.8421 30.9027 12.8999 29.9039C12.9418 29.1894 12.9418 29.1505 13.6561 29.1238C13.9492 29.1128 14.0945 29.2331 14.1203 29.5248C14.1388 29.7265 14.129 29.9306 14.1499 30.1311C14.3297 31.9016 14.5267 33.6696 14.6905 35.4413C14.8629 37.3151 14.9996 39.1913 15.1622 41.0662C15.2348 41.8998 15.3407 42.731 15.4159 43.5646C15.4614 44.0579 15.4725 44.5549 15.5082 45.0495C15.5378 45.4505 15.5833 45.8357 15.7619 46.2221C16.2225 47.2197 16.9786 47.6924 18.0771 47.7191C18.8886 47.7386 19.5081 47.3497 20.0191 46.8199C20.3578 46.4688 20.561 45.9876 20.5216 45.4578C20.4255 44.1867 20.3393 42.9157 20.2371 41.6458C20.1164 40.1439 19.9809 38.642 19.8541 37.1401C19.7322 35.6989 19.6066 34.2578 19.4933 32.8166C19.4206 31.8785 19.3751 30.938 19.3036 29.9999C19.2531 29.3364 19.1288 28.6754 19.1251 28.0131C19.1054 24.4491 19.114 20.8839 19.1103 17.3198C19.1103 17.1011 19.1325 16.9359 19.1879 16.8131H31.047C31.5815 16.8131 32.0753 16.6442 32.4792 16.3599C32.4866 16.3562 32.494 16.3526 32.5001 16.3477C32.8967 16.0998 33.1664 15.7462 33.3117 15.3501C33.4447 15.0512 33.5186 14.7219 33.5186 14.3743V14.3719ZM8.29299 20.5862C8.27452 20.5862 8.25728 20.5862 8.2388 20.5862C8.2388 21.3238 8.24619 22.0626 8.23142 22.8002C8.22895 22.9326 8.13167 23.0638 8.07748 23.1963C7.93586 23.127 7.74129 23.0954 7.66001 22.9824C7.08984 22.195 6.54306 21.3918 5.99136 20.5934C5.85466 20.3942 5.7192 20.1937 5.59359 19.9871C5.39779 19.6663 5.4101 19.4731 5.70812 19.2592C6.23765 18.8801 6.78689 18.5277 7.33367 18.1717C7.51223 18.055 7.71173 17.9699 7.89769 17.863C8.0861 17.7549 8.19817 17.8387 8.24127 18.0125C8.27944 18.168 8.28929 18.3321 8.29053 18.4925C8.29545 19.19 8.29299 19.8874 8.29299 20.5849V20.5862Z" fill="url(#paint4_linear_21_499)"/>
<defs>
<linearGradient id="paint0_linear_21_499" x1="30.1099" y1="19.887" x2="30.1099" y2="37.4984" gradientUnits="userSpaceOnUse">
<stop stop-color="#9C59A3"/>
<stop offset="1" stop-color="#531675"/>
</linearGradient>
<linearGradient id="paint1_linear_21_499" x1="34.9389" y1="19.887" x2="34.9389" y2="26.7043" gradientUnits="userSpaceOnUse">
<stop stop-color="#9C59A3"/>
<stop offset="1" stop-color="#531675"/>
</linearGradient>
<linearGradient id="paint2_linear_21_499" x1="29.8259" y1="18.1824" x2="29.8259" y2="26.1359" gradientUnits="userSpaceOnUse">
<stop stop-color="#9C59A3"/>
<stop offset="1" stop-color="#531675"/>
</linearGradient>
<linearGradient id="paint3_linear_21_499" x1="13.6364" y1="0" x2="13.6364" y2="10.226" gradientUnits="userSpaceOnUse">
<stop stop-color="#9C59A3"/>
<stop offset="1" stop-color="#531675"/>
</linearGradient>
<linearGradient id="paint4_linear_21_499" x1="16.7593" y1="11.9331" x2="16.7593" y2="47.7241" gradientUnits="userSpaceOnUse">
<stop stop-color="#9C59A3"/>
<stop offset="1" stop-color="#531675"/>
</linearGradient>
</defs>
</svg>
