<svg width="37" height="46" viewBox="0 0 37 46" fill="none" xmlns="http://www.w3.org/2000/svg">
<g clip-path="url(#clip0_21_434)">
<path d="M17.9514 16.4877C16.7231 16.7151 16.0025 17.3056 15.4387 18.201C14.6292 19.4812 13.7753 20.7324 12.8886 21.9545C12.6312 22.3078 12.6265 22.5958 12.7459 22.9492C12.912 23.4453 12.8558 23.9656 12.5774 24.3407C12.0019 25.1151 12.292 25.4684 12.9985 25.8846C14.5075 26.7728 14.545 27.0656 13.6208 28.6386C12.7108 30.1875 11.7843 31.7242 10.8883 33.2827C10.3642 34.1926 9.73017 34.3596 8.84582 33.803C6.18575 32.1283 3.51867 30.4658 0.8352 28.8298C-0.119336 28.2466 -0.217598 27.5496 0.341555 26.6203C1.31247 25.0159 2.25063 23.392 3.21218 21.7803C3.91639 20.6017 4.35622 20.4589 5.47921 21.214C6.26998 21.7464 6.8806 21.9884 7.37191 20.8776C7.47017 20.6525 7.77665 20.3912 7.99891 20.3791C9.18974 20.321 9.49856 19.278 10.0601 18.5132C10.1536 18.385 10.2519 18.2543 10.3174 18.1115C12.2405 13.8885 15.7943 11.9114 19.94 11.0837C22.9393 10.4836 26.1 10.3287 28.1144 13.5207C29.7521 16.1174 31.9512 17.5646 34.9576 17.8913C36.4689 18.0558 37.241 19.3457 36.9298 20.6066C36.6116 21.9061 35.519 22.4579 33.9586 22.1094C33.5398 22.015 33.1257 21.9013 32.7046 21.8287C30.365 21.4197 28.1167 20.8244 26.5773 18.4092C25.4262 21.8747 24.357 25.0933 23.2902 28.3095C23.1194 28.825 23.5171 29.1372 23.73 29.4929C26.1913 33.5997 28.6712 37.6944 31.1347 41.8012C31.8647 43.0185 31.8459 44.168 31.1347 45.0537C30.0422 46.4138 28.1541 46.2952 27.1692 44.7464C26.2263 43.2677 25.3584 41.7383 24.4623 40.2282C22.097 36.2497 19.7645 32.2493 17.3524 28.2998C16.0516 26.1702 15.7873 23.9825 16.5102 21.606C17.0109 19.9652 17.4437 18.3003 17.9514 16.4828V16.4877ZM8.98386 21.9255C8.5487 21.9424 8.40365 22.3417 8.26795 22.7071C8.20011 22.8911 10.0577 24.2003 10.3923 24.2269C10.8719 24.2632 10.9538 23.8615 11.038 23.5324C11.1199 23.2129 9.51026 21.9473 8.98386 21.9255Z" fill="url(#paint0_linear_21_434)"/>
<path d="M23.8564 9.73571C21.2033 9.75991 19.0603 7.5843 19.0627 4.87144C19.065 2.21183 21.1659 0.0216969 23.7371 -8.34379e-05C26.3738 -0.0218637 28.5378 2.17311 28.5332 4.87144C28.5308 7.54074 26.4416 9.71393 23.8564 9.73571Z" fill="url(#paint1_linear_21_434)"/>
<path d="M16.8214 31.8186C17.9303 33.6481 18.8872 35.2454 19.8675 36.8257C20.1248 37.2395 19.9774 37.5952 19.8464 37.9655C19.1258 40.0007 18.4123 42.0384 17.6636 44.064C17.0811 45.6418 15.7896 46.3364 14.4654 45.8354C13.1062 45.3224 12.533 43.9502 13.0828 42.3772C14.2806 38.9432 15.5089 35.5213 16.8214 31.8186Z" fill="url(#paint2_linear_21_434)"/>
</g>
<defs>
<linearGradient id="paint0_linear_21_434" x1="18.4984" y1="10.7393" x2="18.4984" y2="45.9967" gradientUnits="userSpaceOnUse">
<stop stop-color="#9C59A3"/>
<stop offset="1" stop-color="#531675"/>
</linearGradient>
<linearGradient id="paint1_linear_21_434" x1="23.7979" y1="-0.000244141" x2="23.7979" y2="9.73591" gradientUnits="userSpaceOnUse">
<stop stop-color="#9C59A3"/>
<stop offset="1" stop-color="#531675"/>
</linearGradient>
<linearGradient id="paint2_linear_21_434" x1="16.4423" y1="31.8186" x2="16.4423" y2="45.9959" gradientUnits="userSpaceOnUse">
<stop stop-color="#9C59A3"/>
<stop offset="1" stop-color="#531675"/>
</linearGradient>
<clipPath id="clip0_21_434">
<rect width="37" height="46" fill="white"/>
</clipPath>
</defs>
</svg>
